<svg xmlns="http://www.w3.org/2000/svg" width="1920" height="1080" version="1.0" viewBox="0 0 1440 810"><defs><clipPath id="a"><path d="M212.336 47H444v409H212.336Zm0 0"/></clipPath><clipPath id="b"><path d="M996 47h231.836v409H996Zm0 0"/></clipPath><clipPath id="c"><path d="M471 671h137v119H471Zm0 0"/></clipPath><clipPath id="d"><path d="m462 678.563 139.938-17.286 14.62 118.348-139.937 17.29Zm0 0"/></clipPath><clipPath id="e"><path d="m462 678.563 139.938-17.286 14.62 118.348-139.937 17.29Zm0 0"/></clipPath><clipPath id="f"><path d="m462 678.563 139.938-17.286 14.62 118.348-139.937 17.29Zm0 0"/></clipPath><clipPath id="g"><path d="M493 706h36v32h-36Zm0 0"/></clipPath><clipPath id="h"><path d="m462 678.563 139.938-17.286 14.62 118.348-139.937 17.29Zm0 0"/></clipPath><clipPath id="i"><path d="m462 678.563 139.938-17.286 14.62 118.348-139.937 17.29Zm0 0"/></clipPath><clipPath id="j"><path d="m462 678.563 139.938-17.286 14.62 118.348-139.937 17.29Zm0 0"/></clipPath><clipPath id="k"><path d="M527 700h18v33h-18Zm0 0"/></clipPath><clipPath id="l"><path d="m462 678.563 139.938-17.286 14.62 118.348-139.937 17.29Zm0 0"/></clipPath><clipPath id="m"><path d="m462 678.563 139.938-17.286 14.62 118.348-139.937 17.29Zm0 0"/></clipPath><clipPath id="n"><path d="m462 678.563 139.938-17.286 14.62 118.348-139.937 17.29Zm0 0"/></clipPath><clipPath id="o"><path d="M545 700h17v30h-17Zm0 0"/></clipPath><clipPath id="p"><path d="m462 678.563 139.938-17.286 14.62 118.348-139.937 17.29Zm0 0"/></clipPath><clipPath id="q"><path d="m462 678.563 139.938-17.286 14.62 118.348-139.937 17.29Zm0 0"/></clipPath><clipPath id="r"><path d="m462 678.563 139.938-17.286 14.62 118.348-139.937 17.29Zm0 0"/></clipPath><clipPath id="s"><path d="M568 696h11v31h-11Zm0 0"/></clipPath><clipPath id="t"><path d="m462 678.563 139.938-17.286 14.62 118.348-139.937 17.29Zm0 0"/></clipPath><clipPath id="u"><path d="m462 678.563 139.938-17.286 14.62 118.348-139.937 17.29Zm0 0"/></clipPath><clipPath id="v"><path d="m462 678.563 139.938-17.286 14.62 118.348-139.937 17.29Zm0 0"/></clipPath><clipPath id="w"><path d="M568 731h5v4h-5Zm0 0"/></clipPath><clipPath id="x"><path d="m462 678.563 139.938-17.286 14.62 118.348-139.937 17.29Zm0 0"/></clipPath><clipPath id="y"><path d="m462 678.563 139.938-17.286 14.62 118.348-139.937 17.29Zm0 0"/></clipPath><clipPath id="z"><path d="m462 678.563 139.938-17.286 14.62 118.348-139.937 17.29Zm0 0"/></clipPath></defs><g clip-path="url(#a)"><path fill="#ff595e" d="M408.883 455.883h-47.797V302.977H231.94l-19.566-37.622L365.422 47.72l43.46 13.73v193.746h35.052v47.782h-35.051Zm-130.93-200.688h83.133V136.98Zm0 0"/></g><g clip-path="url(#b)"><path fill="#ff595e" d="M1192.43 455.883h-47.797V302.977h-128.926l-19.562-37.622 152.82-217.636 43.465 13.73v193.746h35.367v47.782h-35.367Zm-130.743-200.688h82.946v-118.12Zm0 0"/></g><path fill="#ff595e" d="M729.695 479.617c-29.828 0-58.793-5.863-86.066-17.394-26.32-11.149-49.965-27.078-70.262-47.368-20.297-20.293-36.23-43.93-47.383-70.242-11.535-27.27-17.398-56.226-17.398-86.043 0-29.816 5.863-58.773 17.398-86.039 11.153-26.316 27.086-49.953 47.383-70.242 20.297-20.293 43.942-36.223 70.262-47.371 27.273-11.531 56.238-17.39 86.066-17.39 29.825 0 58.79 5.859 86.063 17.39 26.32 11.148 49.965 27.078 70.262 47.371 20.296 20.29 36.23 43.926 47.382 70.242 11.535 27.266 17.399 56.223 17.399 86.04 0 29.816-5.864 58.773-17.399 86.042-11.152 26.313-27.086 49.95-47.382 70.242-20.297 20.29-43.942 36.22-70.262 47.368-27.274 11.562-56.238 17.394-86.063 17.394Zm0 0"/><path fill="#ff595e" d="M729.695 85.34c-95.562 0-173.312 77.726-173.312 173.262 0 95.535 77.75 173.261 173.312 173.261 95.559 0 173.309-77.726 173.309-173.261 0-95.536-77.75-173.262-173.309-173.262Zm0 0"/><path fill="#0a1324" d="M1157.727 567.027s-21.446 25.485 0 46.032c0 0-31.926 4.554-31.926-25.961 0-30.52 31.926-20.07 31.926-20.07ZM777.777 377.266c1.785-13.73-26.449-26.696-26.449-26.696-24.215-12.71-50.375-5.574-50.375-5.574-39.48 8.09-35.402 27.3-35.402 27.3Zm0 0"/><path fill="#1f3e76" d="m1106.902 572.54-79.148-5.767-109.106-42.625c-36.132-22.87-77.14-114.68-77.14-114.68l-15.235 3.731-3.343 72.98 13.925 15.926s11.184 22.426 43.207 48.325l144.758 62.5 84.028.129"/><path fill="#0a1324" d="m962.082 541.129-43.465-16.98c-4.14-2.641-8.379-6.18-12.586-10.383-5.64 32.047-35.18 28.828-35.18 28.828 2.872 2.55 5.93 5.195 9.212 7.836l68.921 29.754Zm0 0"/><path fill="#87b4de" d="m834.59 549.793 6.95-140.324s-8.767-20.864-63.763-32.203c-120.957-24.946-187.14 19.015-187.14 19.015l-3.344 115.285s.16 46.192.383 83.559c.222 37.367 66.086 31.504 66.086 31.504l148.902 2.293 31.895-2.293v-76.836Zm0 0"/><path fill="#1f3e76" d="M666.477 396.57s96.8-22.554 159.796 16.66l-3.343 72.98-149.414-3.632Zm0 0"/><path fill="#fff" d="M766.719 442.824v-12.742h-28.676v-15.93h28.676V401.41h-34.953l-6.47 6.438v57.402l6.47 6.242h34.953V458.75h-28.676v-15.926Zm0 0"/><path fill="#87b4de" d="m626.582 149.531-21.605 97.54a25.27 25.27 0 0 0 2.328 17.296l33.043 62.727a25.39 25.39 0 0 0 19.629 13.379l186.691 20.703c11.918 1.308 23.133-5.89 26.863-17.266l34.824-106.047a25.32 25.32 0 0 0-5.511-25.133l-57.035-61.32a25.305 25.305 0 0 0-16.602-7.996l-175.926-13.637c-12.586-.984-23.96 7.457-26.699 19.754Zm0 0"/><path fill="#1f3e76" d="M908.355 237.8 873.531 343.88c-3.73 11.375-14.945 18.605-26.863 17.266L659.977 340.44a25.294 25.294 0 0 1-10.102-3.378l29.059-121.211c3.058-12.774 15.359-21.055 28.328-19.145l202.117 29.848a25.028 25.028 0 0 1-1.024 11.246Zm0 0"/><path fill="none" stroke="#0a1324" stroke-linecap="round" stroke-linejoin="round" stroke-miterlimit="10" stroke-width="10" d="m1859.406 997.595-119.01-136.69" transform="matrix(.31864 0 0 .31855 84.504 -137.265)"/><path fill="#fff" d="m711.18 281.41 51.047 8.953s-10.801 24.242-33.52 19.399c-22.719-4.84-17.527-28.352-17.527-28.352ZM802.887 295.906l51.715 8.313s-5.575 20.804-33.903 17.457c-28.297-3.344-17.812-25.77-17.812-25.77Zm0 0"/><path fill="#1f3e76" d="m919.574 634.945-85.11-8.285s-18.706-9.14-18.706-37.937c0-28.797 18.707-38.899 18.707-38.899l77.332.29"/><path fill="#3279af" d="M985.309 463.719c-37.407-8.25-76.633 49.793-76.633 120.449 0 70.652 35.273 74.86 82.113 74.86"/><path fill="#0a1324" d="M985.309 463.719c42.605 3.761 66.597 186.836 5.515 195.308-61.086 8.473-56.34-199.797-5.515-195.308Zm0 0"/><path fill="none" stroke="#0a1324" stroke-linecap="round" stroke-linejoin="round" stroke-miterlimit="10" stroke-width="10" d="M2383.699 2157.103s-60.204 138.995 36.801 248.192M2471.203 2157.704s-27.803 167.394 75.994 260.993" transform="matrix(.31864 0 0 .31855 84.504 -137.265)"/><path fill="#1f3e76" d="M368.066 555.496s74.754 7.52 123.442-22.746c50.824-31.598 99.129-136.469 99.129-136.469s18.484-3.281 29.57 24.91c11.09 28.164-3.727 49.504-3.727 49.504S562.215 557.06 509.605 587.32c-52.605 30.262-138.8 15.004-138.8 15.004"/><path fill="none" stroke="#0a1324" stroke-linecap="round" stroke-linejoin="round" stroke-miterlimit="10" stroke-width="10" d="M1547.096 1756.7s49.208 23.101 64.102 236.7M1468.197 1890.8s57.507 64.096 37.108 234.703M1356.1 2036.797s46.303 113.807-5.197 227.603M1207.497 2137.202s10.408 131.502-76.398 193.402M1029.203 2174.406s-1.999 109.393-62.105 152.998" transform="matrix(.31864 0 0 .31855 84.504 -137.265)"/><path fill="#0a1324" d="m1179.555 612.93 28.488-3.184v17.234l-29.031 13.157M1179.012 539.793l29.031 10.703v16.246l-28.488.031"/><path fill="#3279af" d="M1130.867 589.934c.348 29.113 48.719 22.996 48.719 22.996l-.54 27.207c-36.519-1.211-74.913-10.035-75.487-47.785-.575-37.747 32.246-53.836 75.55-52.559l.606 26.98c-.031 0-49.2-5.957-48.848 23.16Zm0 0"/><path fill="none" stroke="#0a1324" stroke-linecap="round" stroke-linejoin="round" stroke-miterlimit="10" stroke-width="10" d="M2438.3 1841.101s19.995 160.601-31.898 230.202M2534.803 1993.4s35.992 103.103 0 164.304M3132.699 2222.695s-21.699 90.202 40.503 132.704M3011.004 2213.805s-21.503 95.696 37.892 141.19" transform="matrix(.31864 0 0 .31855 84.504 -137.265)"/><path fill="#3279af" d="M736.45 165.14s2.39-40.68 52.003-35.456c49.645 5.257 46.902 46.957 46.902 46.957s-5.19 10.062-38.27 7.199c-33.073-2.867-60.636-18.7-60.636-18.7Zm0 0"/><path fill="none" stroke="#0a1324" stroke-linecap="round" stroke-linejoin="round" stroke-miterlimit="10" stroke-width="10" d="m2173.2 880.501-127.2-383.2" transform="matrix(.31864 0 0 .31855 84.504 -137.265)"/><path fill="#3279af" d="M755.473 19.02c0 .62-.032 1.242-.094 1.863a19.2 19.2 0 0 1-1.355 5.414 18.411 18.411 0 0 1-1.758 3.285c-.344.52-.715 1.02-1.114 1.5a18.334 18.334 0 0 1-2.637 2.637c-.48.394-.98.765-1.495 1.113-.52.344-1.055.664-1.602.957-.55.293-1.113.559-1.688.797a19.526 19.526 0 0 1-3.57 1.086c-.61.121-1.226.21-1.847.273-.618.059-1.243.09-1.864.09-.625 0-1.246-.031-1.863-.09a19.497 19.497 0 0 1-1.848-.273 19.22 19.22 0 0 1-6.86-2.84 19.795 19.795 0 0 1-2.882-2.367 21.06 21.06 0 0 1-1.254-1.383c-.394-.48-.765-.98-1.11-1.5a18.412 18.412 0 0 1-1.757-3.285 19.236 19.236 0 0 1-.629-1.758c-.183-.598-.332-1.2-.453-1.812a18.402 18.402 0 0 1-.273-1.844 18.598 18.598 0 0 1 0-3.73c.058-.618.152-1.235.273-1.844.121-.614.27-1.215.453-1.813a18.93 18.93 0 0 1 2.387-5.043c.344-.52.715-1.02 1.11-1.5.398-.48.816-.941 1.253-1.383a19.795 19.795 0 0 1 2.883-2.367c.52-.344 1.055-.664 1.601-.957A19.236 19.236 0 0 1 730.925.82c.598-.183 1.2-.332 1.813-.453A18.323 18.323 0 0 1 736.45 0a18.323 18.323 0 0 1 3.71.367c.61.121 1.216.27 1.814.453a19.236 19.236 0 0 1 3.445 1.426c.547.293 1.082.613 1.602.957a19.795 19.795 0 0 1 2.882 2.367c.438.442.856.903 1.25 1.383.399.48.77.98 1.114 1.5a18.93 18.93 0 0 1 2.84 6.855c.12.61.214 1.227.273 1.844.062.621.094 1.243.094 1.868Zm0 0"/><path fill="none" stroke="#0a1324" stroke-linecap="round" stroke-linejoin="round" stroke-miterlimit="10" stroke-width="10" d="m2248.494 895.694 137.301-194.09 191.302 178.897" transform="matrix(.31864 0 0 .31855 84.504 -137.265)"/><path fill="#3279af" d="M928.496 148.031c0 .625-.031 1.246-.094 1.867a19.2 19.2 0 0 1-.727 3.656c-.179.594-.39 1.18-.628 1.755-.238.578-.504 1.14-.797 1.687-.293.55-.613 1.086-.96 1.602-.345.52-.716 1.02-1.114 1.5-.395.48-.813.941-1.25 1.382-.442.442-.903.86-1.387 1.254a19.086 19.086 0 0 1-3.098 2.07 19.236 19.236 0 0 1-3.445 1.426c-.598.184-1.203.333-1.812.454-.61.12-1.227.214-1.848.273a18.54 18.54 0 0 1-3.727 0 18.312 18.312 0 0 1-1.847-.273 18.072 18.072 0 0 1-1.813-.454 19.236 19.236 0 0 1-3.445-1.425 19.086 19.086 0 0 1-5.738-4.707c-.395-.48-.766-.98-1.11-1.5a17.907 17.907 0 0 1-.96-1.602 18.499 18.499 0 0 1-.798-1.687 18.753 18.753 0 0 1-1.082-3.567 18.402 18.402 0 0 1-.273-1.844 18.618 18.618 0 0 1 0-3.73c.059-.621.152-1.234.273-1.844a18.827 18.827 0 0 1 1.082-3.57c.239-.574.504-1.137.797-1.688a19.086 19.086 0 0 1 3.325-4.48c.44-.441.902-.86 1.386-1.254.48-.394.98-.766 1.496-1.113.52-.344 1.055-.664 1.602-.957.55-.297 1.113-.563 1.687-.801a20.481 20.481 0 0 1 1.758-.629 19.2 19.2 0 0 1 3.66-.727c.618-.058 1.243-.09 1.864-.09.62 0 1.246.032 1.863.09.621.063 1.238.153 1.848.274.609.121 1.214.273 1.812.453.594.184 1.18.39 1.758.629.574.238 1.137.504 1.687.8.547.294 1.082.614 1.602.958a19.795 19.795 0 0 1 2.883 2.367c.437.437.855.898 1.25 1.383.398.48.77.98 1.113 1.496.348.52.668 1.055.961 1.601.293.551.559 1.114.797 1.688a18.827 18.827 0 0 1 1.082 3.57c.121.61.215 1.223.273 1.844.063.621.094 1.242.094 1.863Zm0 0"/><path fill="#0a1324" d="M373.93 604.457c-10.07 31.156-72.207 33.992-72.207 33.992l-30.461-29.117 6.945-28.926-39.543 9.782-24.312-17.649 5.128-45.746s82.754-15.16 127.81 4.238c45.12 19.43 36.706 42.305 26.64 73.426Zm0 0"/><path fill="#3279af" d="m319.441 582.86-36.328-22.778s75.043-.316 48.883-16.34c-26.16-16.023-86.8 4.778-86.8 4.778l-25.716-21.727s82.754-15.16 127.81 4.238c12.843 5.543 21.35 11.34 26.702 17.551 16.762 25.008-54.55 34.277-54.55 34.277Zm0 0"/><path fill="#87b4de" d="m319.441 582.86-17.718 55.59-30.43-29.118 11.82-49.25ZM245.227 548.52l-6.563 41.668-24.281-17.649 5.129-45.746Zm0 0"/><path fill="#1f3e76" d="m738.902 634.945-85.109-8.285s-18.703-9.14-18.703-37.937c0-28.797 18.703-38.899 18.703-38.899l77.336.29"/><path fill="#3279af" d="M804.64 463.719c-37.41-8.25-76.636 49.793-76.636 120.449 0 70.652 35.273 74.86 82.117 74.86"/><path fill="#0a1324" d="M804.64 463.719c42.602 3.761 66.594 186.836 5.512 195.308-61.086 8.473-56.336-199.797-5.511-195.308Zm0 0"/><path fill="none" stroke="#0a1324" stroke-linecap="round" stroke-linejoin="round" stroke-miterlimit="10" stroke-width="10" d="M1816.696 2157.103s-60.192 138.995 36.801 248.192M1904.2 2157.704s-27.803 167.394 75.994 260.993" transform="matrix(.31864 0 0 .31855 84.504 -137.265)"/><g clip-path="url(#c)"><g clip-path="url(#d)"><g clip-path="url(#e)"><g clip-path="url(#f)"><path d="M526.594 788.508c-.942.992.066 1.32 1.011 1.238 18.973-1.562 37.051-13.805 36.735-34.098 12.117-3.246 24.695-7.93 33.496-17.132 8.492-8.899 10.68-20.461 9.723-32.383-2.461-19.668-21.332-29.285-38.98-32.828-20.235-4.07-43.141-2.57-61.923 6.383-16.566 7.894-30.515 22.269-34.312 40.66-3.196 15.425.308 36.59 16.847 42.8 8.696 3.258 18.57 2.508 27.59 1.41 2.668-.312 5.371-.976 8.055-1.167 3.504-.246 3.918.453 5.238 3.652 3.266 7.824 2.485 15.16-3.48 21.465Zm5.375-27.922c-.262-.453-.946-.43-1.39-.344-16.485 2.836-40.669 7.59-50.306-10.52-9.703-18.253-3.738-41.652 10.098-55.949 17.621-18.222 45.41-22.39 69.586-18.949 18.918 2.68 40.613 11.73 43.281 33.063.848 10.543-.808 21.21-7.926 29.453-8.253 9.558-21.113 13.746-32.949 16.754-.59.152-2.441.867-2.402 1.707.832 17.613-12.05 28.98-28.469 31.226 6.531-8.078 5.801-17.402.477-26.441Zm0 0"/></g></g></g></g><g clip-path="url(#g)"><g clip-path="url(#h)"><g clip-path="url(#i)"><g clip-path="url(#j)"><path d="M519.441 706.555c-5.84.363-8.39 6.824-9.117 12.215-.918-4.407-3.144-8.747-8.101-7.961-6.356 1.004-8.668 8.484-8.743 13.98-.074 4.953 1.637 13.75 8.235 13.074 5.61-.566 8.043-5.965 8.86-11.008.91 4.704 3.296 9.586 8.288 9.485 7.309-.137 9.36-9.602 9.653-15.223-.13-5.363-1.84-15.004-9.075-14.562Zm-18.015 27.949c-3.035-1.64-3.637-8.152-3.594-10.86.027-2.57.969-11.773 5.066-9.527 3.157 1.738 3.536 7.992 3.594 10.863-.12 2.426-.86 11.79-5.066 9.524Zm16.726-2.52c-3.125-1.613-3.64-8.086-3.57-11.066.066-2.746.879-11.356 5.203-10.559 3.7.684 4.164 9.258 4.203 11.602-.133 2.594-1.168 12.45-5.836 10.023Zm0 0"/></g></g></g></g><g clip-path="url(#k)"><g clip-path="url(#l)"><g clip-path="url(#m)"><g clip-path="url(#n)"><path d="M534.477 731.25c1.09 1.852 5.355.027 4.32-1.754-1.805-3.09-3.2-6.406-4.356-9.797 5.555-4.05 15.145-15.851 5.543-18.969-3.308-1.074-7.23.239-9.535 2.743-4.136 4.5-2.242 11.617-.734 16.84 1.234 3.773 2.742 7.496 4.762 10.937Zm-1.372-25.164c.95-1.93 3.403-3.234 5.32-1.625 3.579 2.996-1.234 8.738-5.023 11.894-.894-3.328-1.722-7.355-.297-10.27Zm0 0"/></g></g></g></g><g clip-path="url(#o)"><g clip-path="url(#p)"><g clip-path="url(#q)"><g clip-path="url(#r)"><path d="M554.098 717.566c1.886 1.739 3.168 3.739 2.351 6.387-1.234 4.063-4.965 3.758-6.347.035-.536-1.418-4.864.274-4.32 1.754 3.323 8.91 17.605 1.547 15.034-6.613-1.293-4.125-6.234-5.875-9.03-8.766-1.759-1.816-3.157-5.398-.223-6.98 1.73-.95 3.886.43 5.375 1.59 1.195.93 5.199-1.239 3.949-2.227-2.508-1.957-5.828-3.11-8.98-2.281-3.653.965-7.391 4.883-6.204 8.93 1.11 3.804 5.711 5.69 8.395 8.171Zm0 0"/></g></g></g></g><g clip-path="url(#s)"><g clip-path="url(#t)"><g clip-path="url(#u)"><g clip-path="url(#v)"><path d="M575.535 725.445c4.89-8.925 2.492-19.98-2.27-28.527-.624-1.11-4.824.848-4.324 1.754 4.504 8.078 7.204 19.02 2.555 27.52-.75 1.378 3.492.257 4.04-.747Zm0 0"/></g></g></g></g><g clip-path="url(#w)"><g clip-path="url(#x)"><g clip-path="url(#y)"><g clip-path="url(#z)"><path d="M570.156 734.602c1.758-.22 4.39-3.22 1.387-2.848-1.758.203-4.39 3.219-1.387 2.848Zm0 0"/></g></g></g></g><path fill="none" stroke="#3b1b72" stroke-width="1.7999999999999998" d="M666.863 698.457h5.754v8.168h11.52v5.754h5.765v8.156h-5.765v-8.156h-11.52v-5.754h-5.754Zm5.754 22.078h11.52v5.766h-11.52v-5.766h-5.754v-5.754h5.754Zm0-27.832h11.52v5.754h5.765v5.766h-5.765v-5.766h-11.52Zm32.926 5.754v-5.754h11.52v5.754h5.765v22.078h-5.765v-22.078Zm0 0v22.078h11.52v5.766h-11.52v-5.766h-5.754v-22.078Zm27.176-5.754h5.754v5.754h5.765v5.766h5.754v5.754h-5.754v-5.754h-5.765V726.3h-5.754Zm23.039 11.52h-5.766v-5.766h5.766v-5.754h5.754v33.598h-5.754Zm15.648-11.52h23.04v5.754H777.16v8.168h11.52v5.754h-11.52v8.156h17.285v5.766h-23.039Zm32.977 0h23.039v5.754h-8.637v27.844h-5.765v-27.844h-8.637Zm32.926 0h5.754v13.922h11.519v-13.922h5.766v33.598h-5.766v-13.922h-11.52V726.3h-5.753Zm32.976 33.598v-33.598h5.754v33.598Zm15.695-33.598h5.754v5.754h5.766v5.766h5.754v5.754h5.766v-17.274h5.753v33.598h-5.753v-10.559h-5.766v-5.765H897.5v-5.754h-5.766V726.3h-5.754Zm38.688 5.754h5.754v22.078h11.52v5.766h-11.52v-5.766h-5.754Zm5.754-5.754h11.52v5.754h5.765v5.766h-5.766v-5.766h-11.52Zm17.285 27.832h-5.766v-5.273h-5.753v-5.766h11.519ZM653.063 771.93v-10.371h5.753v10.37h5.766v-22.077h5.754v33.597h-5.754v-5.765h-5.766v-5.754Zm-5.766 11.52h-5.754v-33.598h5.754v22.078h5.766v5.754h-5.766Zm32.933-33.598h23.04v5.753h-17.286v8.168h11.52v5.754h-11.52v8.157h17.286v5.765h-23.04Zm32.977 0h5.754v5.753h5.766v5.766h5.753v5.754h5.766v-17.273H742v33.597h-5.754v-10.558h-5.766v-5.766h-5.753v-5.754h-5.766v22.078h-5.754Zm38.688 0h23.039v5.753h-8.637v27.844h-5.766v-27.844h-8.636Zm66.382 22.078v-10.371h5.754v10.37h5.766v-22.077h5.754v33.597h-5.754v-5.765h-5.766v-5.754Zm-5.765 11.52h-5.754v-33.598h5.754v22.078h5.765v5.754h-5.765Zm38.691-27.845v8.168h11.52v5.754h5.765v13.922h-5.765v-13.922h-11.52v13.922h-5.754v-33.597h17.274v5.753h5.765v8.168h-5.765v-8.168Zm32.926 0v-5.753h11.52v5.753h5.765v22.079h-5.766v-22.079Zm0 0v22.079h11.52v5.765h-11.52v-5.765h-5.754v-22.079Zm27.176-5.753h5.754v5.753h5.765v5.766h5.754v5.754h5.766v-17.273h5.754v33.597h-5.754v-10.558h-5.766v-5.766h-5.754v-5.754h-5.765v22.078h-5.754Zm38.687 5.753h5.754v22.079h11.52v5.765h-11.52v-5.765h-5.754Zm5.754-5.753h11.52v5.753h5.765v5.766h-5.765v-5.766h-11.52Zm17.285 27.832h-5.765v-5.274h-5.754v-5.765h11.52Zm0 0"/></svg>