<svg xmlns="http://www.w3.org/2000/svg" width="500" height="500" version="1.0" viewBox="0 0 375 375"><path fill="#0d1e2b" d="M195.863.191c-78.672 0-143.34 59.942-150.84 136.645l-.734 27.098-27 48.093c-3.242 8.985 1.02 18.95 9.758 22.805l15.16 6.691a14.192 14.192 0 0 1 8.457 12.98v36.716c0 19.02 15.566 34.59 34.59 34.59l33.379-8.934c7.226 0 13.086 5.863 13.086 13.09v30.043c0 9.094 9.77 14.844 17.719 10.43l127.402-60.836a23.496 23.496 0 0 0 12.094-20.543v-17.63c51.671-32.343 58.488-90.714 58.523-119.48C347.547 68.38 279.437.187 195.863.191Zm0 263.254c-59.652 0-108.011-48.36-108.011-108.011 0-59.653 48.359-108.012 108.011-108.012 59.657 0 108.016 48.36 108.016 108.012s-48.356 108.011-108.016 108.011Zm0 0"/><path fill="#5271ff" d="m44.3 163.46-.01.474-5.868 10.441h51.086c-.633-3.574-1.02-7.227-1.29-10.91H44.302Zm0 0"/><path fill="#0d1e2b" d="m119.441 231.762.036.035-.036-.035Zm0 0"/><path fill="#5271ff" d="m272.266 79.012-.032.035c19.555 19.547 31.649 46.555 31.649 76.387 0 59.652-48.36 108.011-108.012 108.011-29.824 0-56.82-12.082-76.367-31.625l103.492 103.493 53.852-25.715a23.496 23.496 0 0 0 12.093-20.543v-17.63c50.368-31.527 58.114-87.777 58.5-117.241Zm0 0"/><path fill="#ff66c4" d="M177.215 224.438c-4.836 0-9.04-3.329-10.145-8.036l-17.632-75.125-8.7 16.602a10.412 10.412 0 0 1-9.23 5.582H40.227c-5.754 0-10.418-4.668-10.418-10.422 0-5.754 4.664-10.418 10.418-10.418h84.984l18.754-35.789a10.439 10.439 0 0 1 10.539-5.504 10.42 10.42 0 0 1 8.832 7.957l13.871 59.098 19.25-82.149a10.415 10.415 0 0 1 9.879-8.039c4.7-.105 8.96 2.97 10.273 7.524l21.993 76.191 9.195-14.566a10.415 10.415 0 0 1 8.812-4.86h93.914c5.754 0 10.418 4.668 10.418 10.422 0 5.754-4.664 10.418-10.418 10.418h-88.18l-18.515 29.336a10.423 10.423 0 0 1-10.273 4.754 10.43 10.43 0 0 1-8.547-7.43L207.64 129.81l-20.286 86.578a10.411 10.411 0 0 1-10.14 8.05Zm0 0"/><path fill="#fff" d="M210.098 317.3c.156-.07.32-.14.484-.203.157-.063.32-.13.485-.203.2-.102.351-.188.453-.25.094-.07.215-.149.36-.235.117-.05.214-.062.296-.03a.716.716 0 0 1 .25.124c.242.149.43.36.563.64.125.282.218.59.281.923.062.324.117.652.156.984.031.336.074.625.125.875.094.336.227.61.39.828.157.219.345.324.563.313.22-.008.473-.188.766-.532.02-.03.098-.14.234-.328a3.46 3.46 0 0 0 .407-.765c.132-.313.203-.657.203-1.032a2.135 2.135 0 0 0-.297-1.109 4.082 4.082 0 0 0-.703-.938c-.262-.25-.535-.5-.828-.75a.643.643 0 0 1-.125-.03.297.297 0 0 1-.079-.079c-.039-.094 0-.172.125-.234.22-.102.422-.192.61-.266.195-.082.406-.176.625-.281.226-.113.43-.223.61-.328.175-.114.366-.223.577-.328.125-.063.207-.047.25.046.02.032.02.07 0 .11a.173.173 0 0 0 0 .11 7.1 7.1 0 0 0 .25 1.702c.164.594.36 1.172.578 1.735.227.554.446 1.039.657 1.453.195.406.445.87.75 1.39.312.512.656 1.012 1.031 1.5.375.493.77.899 1.187 1.22.04.054.079.085.11.093.031 0 .062.023.094.062.039.094 0 .172-.125.235-.149.074-.309.14-.485.203a3.097 3.097 0 0 0-.484.203c-.2.094-.344.18-.438.25a2.326 2.326 0 0 1-.39.234c-.106.055-.2.063-.282.032a4.97 4.97 0 0 1-.25-.125 1.462 1.462 0 0 1-.546-.657 4.553 4.553 0 0 1-.297-.921c-.063-.332-.11-.66-.14-.985a5.554 5.554 0 0 0-.142-.86c-.093-.35-.226-.632-.39-.843-.156-.207-.352-.312-.578-.312-.219 0-.477.183-.766.546-.012.012-.09.118-.234.313-.137.2-.274.46-.407.781a2.92 2.92 0 0 0-.203 1.031c0 .368.102.743.313 1.125.219.368.453.672.703.922.258.25.531.493.812.72.063.042.102.07.125.077.032 0 .063.024.094.063.04.093.004.172-.11.234-.23.117-.444.211-.64.281-.187.063-.39.153-.61.266-.23.105-.433.215-.609.328-.18.117-.37.227-.578.328-.125.063-.207.047-.25-.047-.03-.039-.035-.078-.015-.109a.278.278 0 0 0 0-.14 6.2 6.2 0 0 0-.25-1.688 15.104 15.104 0 0 0-.594-1.75 18.484 18.484 0 0 0-.656-1.485c-.207-.414-.461-.875-.766-1.375a15.19 15.19 0 0 0-1-1.484 6.648 6.648 0 0 0-1.187-1.219 1.146 1.146 0 0 0-.11-.047.297.297 0 0 1-.078-.078c-.039-.093 0-.172.125-.234ZM225.59 317.25c.101.21.254.492.453.844.195.343.453.699.765 1.062.32.367.688.672 1.094.922l.125.078c.031.012.063.04.094.078.04.094 0 .172-.125.235a1.67 1.67 0 0 1-.328.125 1.893 1.893 0 0 0-.36.14 1.555 1.555 0 0 0-.28.172 1.717 1.717 0 0 1-.298.188.231.231 0 0 1-.203 0 1.78 1.78 0 0 1-.547-.579 3.014 3.014 0 0 1-.422.891c-.18.262-.406.465-.687.61-.45.218-.934.261-1.453.124-.524-.132-1.02-.414-1.5-.843a5.512 5.512 0 0 1-1.203-1.641 5.34 5.34 0 0 1-.563-1.937c-.05-.645.028-1.211.235-1.704.21-.5.539-.859.984-1.078.281-.144.586-.21.906-.203.313.012.63.09.953.235-.105-.301-.148-.567-.125-.797 0-.063.04-.114.125-.157.102-.05.207-.093.313-.125.113-.039.219-.082.312-.125.125-.062.235-.125.328-.187.102-.07.208-.133.313-.188.125-.062.207-.05.25.032.02.043.023.086.016.125a.644.644 0 0 0-.032.125 5.04 5.04 0 0 0 .078 1.437c.094.469.22.89.375 1.266.165.375.301.668.407.875Zm-.532 3.656c.27-.082.422-.27.454-.562.03-.29-.04-.641-.204-1.047-.156-.407-.421-.832-.796-1.282a6.687 6.687 0 0 0-1.172-1.156 4.696 4.696 0 0 0-1.203-.719c-.383-.156-.711-.191-.985-.109-.25.086-.394.277-.437.578-.04.293.023.64.187 1.047.168.398.434.824.797 1.281.356.438.742.824 1.156 1.157.426.335.832.574 1.22.718.382.149.71.18.983.094ZM225.696 312.792c.211-.101.391-.18.547-.234.157-.063.344-.149.563-.266.23-.101.418-.195.562-.281.137-.094.313-.195.532-.313.117-.05.195-.035.234.047a.16.16 0 0 1 .016.125.516.516 0 0 0-.016.125c-.04.711.027 1.34.203 1.89.168.556.336 1.009.5 1.36a9.63 9.63 0 0 1-.219-1.187 6.684 6.684 0 0 1-.031-1.282 3 3 0 0 1 .313-1.156c.164-.351.44-.629.828-.828.425-.207.859-.223 1.297-.047.437.168.765.469.984.906.156.305.226.633.219.985 0 .344.02.703.062 1.078.02.21.098.36.235.453.144.094.304.07.484-.078.062-.04.098-.031.11.031.03.274-.04.547-.204.828a1.466 1.466 0 0 1-.594.61c-.293.148-.574.199-.843.156-.274-.05-.5-.176-.688-.375a1.367 1.367 0 0 1-.328-.719c-.031-.27.023-.539.172-.812.101-.164.234-.328.39-.485.157-.164.313-.328.47-.484.226-.25.331-.453.312-.61a.336.336 0 0 0-.266-.296c-.156-.051-.344-.047-.562.015-.22.055-.43.157-.625.313-.43.324-.715.734-.86 1.234a3.959 3.959 0 0 0-.14 1.547c.05.531.175 1.031.375 1.5.164.43.379.781.64 1.063.258.28.57.546.938.796a.45.45 0 0 0 .11.079c.03.011.062.039.093.078.039.093.004.168-.11.218-.218.118-.406.2-.562.25a7.547 7.547 0 0 0-.578.235 7.965 7.965 0 0 0-.547.312 4.145 4.145 0 0 1-.516.297c-.125.063-.207.047-.25-.047-.03-.039-.039-.078-.03-.11a.499.499 0 0 0 .015-.14c.074-.488.058-.96-.047-1.422a9.542 9.542 0 0 0-.39-1.265c-.157-.383-.286-.68-.391-.89a10.647 10.647 0 0 0-.47-.829 8.72 8.72 0 0 0-.765-1.062 3.861 3.861 0 0 0-1.11-.938.403.403 0 0 0-.108-.062.239.239 0 0 1-.079-.094c-.039-.082 0-.156.125-.219ZM232.254 309.546c.211-.101.391-.18.547-.234.157-.063.344-.149.563-.266.23-.101.418-.195.562-.281.137-.094.313-.195.532-.312.117-.051.195-.036.234.046a.16.16 0 0 1 .016.125.516.516 0 0 0-.016.125c-.04.711.027 1.34.203 1.891.168.555.336 1.008.5 1.36a9.63 9.63 0 0 1-.219-1.188 6.684 6.684 0 0 1-.031-1.281 3 3 0 0 1 .313-1.157c.164-.351.44-.628.828-.828a1.467 1.467 0 0 1 1.14-.062c.395.137.739.402 1.032.797-.012-.532.062-1 .218-1.407.157-.414.414-.71.782-.89.445-.219.898-.211 1.359.015.469.22.832.602 1.094 1.141.218.438.347.86.39 1.266.04.406.07.804.094 1.187.02.387.102.766.25 1.14.113.263.273.497.484.704.207.21.461.328.766.36h.094a.274.274 0 0 0 .11-.048c.03-.05.05-.066.062-.046.02.023.03.058.03.109a.986.986 0 0 1-.312.656 2.53 2.53 0 0 1-.578.422c-.43.211-.82.25-1.172.125a1.457 1.457 0 0 1-.796-.703 1.86 1.86 0 0 1-.25-1.14c.039-.395.128-.79.265-1.188.133-.395.242-.797.328-1.203.063-.313.067-.594.016-.844a1.103 1.103 0 0 0-.328-.61.716.716 0 0 0-.594-.203c-.242.012-.5.149-.781.407a2.27 2.27 0 0 0-.688 1c-.148.398-.23.824-.25 1.28-.023.462.004.903.078 1.329.082.43.196.813.344 1.156.113.274.27.512.469.719.207.211.46.328.766.36.007.011.035.011.078 0a.224.224 0 0 0 .125-.063c.03-.04.054-.05.078-.031.02.023.031.054.031.093a1.11 1.11 0 0 1-.328.672c-.18.18-.371.32-.578.422-.418.211-.809.25-1.172.125a1.384 1.384 0 0 1-.797-.703 2.023 2.023 0 0 1-.266-1.156c.04-.383.13-.774.266-1.172.133-.395.25-.797.344-1.203.062-.313.066-.598.015-.86a1.02 1.02 0 0 0-.312-.609.796.796 0 0 0-.61-.187c-.242.011-.507.148-.796.406a2.52 2.52 0 0 0-.766 1.219c-.125.48-.164.98-.11 1.5.051.511.176 1 .376 1.468.164.43.379.782.64 1.063.258.281.57.547.938.797a.45.45 0 0 0 .11.078c.03.012.062.039.093.078.039.094.004.168-.11.219-.218.117-.406.199-.562.25a7.547 7.547 0 0 0-.578.234 7.965 7.965 0 0 0-.547.313 4.145 4.145 0 0 1-.516.296c-.125.063-.207.047-.25-.046-.03-.04-.039-.079-.03-.11a.499.499 0 0 0 .015-.14c.074-.489.058-.961-.047-1.422a9.542 9.542 0 0 0-.39-1.266c-.157-.383-.286-.68-.391-.89a10.647 10.647 0 0 0-.47-.829 8.72 8.72 0 0 0-.765-1.062 3.861 3.861 0 0 0-1.11-.938.403.403 0 0 0-.108-.062.239.239 0 0 1-.079-.094c-.039-.082 0-.156.125-.219ZM244.234 303.621c.438-.218.914-.257 1.422-.125.52.137 1.02.422 1.5.86.488.43.895.965 1.219 1.61.32.655.504 1.308.547 1.952.05.649-.028 1.22-.235 1.72-.199.491-.515.843-.953 1.062-.45.218-.933.261-1.453.125-.523-.133-1.02-.414-1.5-.844a5.512 5.512 0 0 1-1.203-1.64 5.34 5.34 0 0 1-.563-1.938c-.05-.645.028-1.211.235-1.703.21-.5.539-.86.984-1.079Zm3.688 5.97c.27-.083.421-.27.453-.563.031-.29-.04-.64-.203-1.047-.157-.406-.422-.832-.797-1.281a6.687 6.687 0 0 0-1.172-1.157 4.696 4.696 0 0 0-1.203-.718c-.383-.157-.711-.192-.985-.11-.25.086-.394.278-.437.578-.04.293.023.641.187 1.047.168.399.434.824.797 1.281.356.438.742.825 1.156 1.157.426.336.833.574 1.22.718.382.149.71.18.984.094ZM247.676 301.914c.21-.102.39-.18.547-.235.156-.062.344-.148.562-.265.23-.102.418-.196.563-.282.137-.093.312-.195.531-.312.117-.05.195-.035.234.047a.16.16 0 0 1 .016.125.516.516 0 0 0-.016.125c-.039.71.028 1.34.204 1.89.168.555.336 1.008.5 1.36a9.63 9.63 0 0 1-.22-1.188 6.684 6.684 0 0 1-.03-1.281 3 3 0 0 1 .312-1.156c.164-.352.441-.63.828-.828.438-.207.883-.196 1.344.03.469.22.832.602 1.094 1.141.218.438.347.86.39 1.266.04.406.07.805.094 1.188.02.386.11.761.266 1.125.113.273.27.511.468.718.207.211.461.328.766.36.008.011.035.011.078 0a.224.224 0 0 0 .125-.063c.031-.039.055-.05.078-.031.02.023.032.055.032.094a1.11 1.11 0 0 1-.329.672c-.18.18-.37.32-.578.421-.418.211-.808.25-1.172.125a1.384 1.384 0 0 1-.796-.703 2.023 2.023 0 0 1-.266-1.156c.039-.383.129-.773.266-1.172.132-.394.25-.797.343-1.203.063-.312.067-.598.016-.86a1.02 1.02 0 0 0-.313-.609.796.796 0 0 0-.609-.187c-.242.012-.508.148-.797.406a2.52 2.52 0 0 0-.765 1.219c-.125.48-.164.98-.11 1.5.051.512.176 1 .375 1.469.164.43.38.78.64 1.062.259.281.571.547.938.797a.45.45 0 0 0 .11.078c.03.012.062.04.093.078.04.094.004.168-.109.219-.219.117-.406.2-.562.25a7.547 7.547 0 0 0-.579.234 7.965 7.965 0 0 0-.546.313 4.145 4.145 0 0 1-.516.297c-.125.062-.207.047-.25-.047-.031-.04-.04-.078-.031-.11a.499.499 0 0 0 .015-.14c.075-.488.059-.961-.047-1.422a9.542 9.542 0 0 0-.39-1.266c-.156-.382-.285-.68-.39-.89a10.647 10.647 0 0 0-.47-.828 8.72 8.72 0 0 0-.765-1.063 3.861 3.861 0 0 0-1.11-.937.403.403 0 0 0-.109-.063.239.239 0 0 1-.078-.094c-.04-.082 0-.156.125-.218ZM259.103 305.085c-.449.219-.906.215-1.375-.016-.457-.226-.816-.613-1.078-1.156a3.555 3.555 0 0 1-.39-1.25c-.04-.406-.067-.805-.078-1.203a3.307 3.307 0 0 0-.266-1.14 2.008 2.008 0 0 0-.469-.72 1.079 1.079 0 0 0-.765-.312.147.147 0 0 0-.11-.016c-.039 0-.07.016-.094.047-.03.043-.054.055-.078.031-.02-.02-.03-.05-.03-.093a.948.948 0 0 1 .312-.688c.187-.176.382-.312.578-.406.43-.207.82-.254 1.172-.14.343.117.609.35.796.702.2.375.282.762.25 1.157a5.15 5.15 0 0 1-.265 1.187c-.133.399-.242.793-.328 1.188-.07.324-.078.617-.016.875.055.261.164.468.328.625a.7.7 0 0 0 .578.187c.239-.02.504-.16.797-.422.344-.289.582-.644.719-1.062.144-.426.21-.867.203-1.328a4.683 4.683 0 0 0-.234-1.36 4.285 4.285 0 0 0-.563-1.172 3.608 3.608 0 0 0-.547-.625 6.189 6.189 0 0 0-.64-.5.553.553 0 0 0-.125-.078c-.032-.007-.055-.035-.078-.078-.04-.094-.004-.172.109-.234.227-.102.422-.18.578-.235.156-.05.344-.132.563-.25a2.86 2.86 0 0 0 .53-.296c.134-.094.313-.192.532-.297.125-.063.207-.047.25.047.02.043.024.078.016.109a.434.434 0 0 0-.016.14 5.016 5.016 0 0 0 0 .97c.04.324.102.624.188.906.175.68.414 1.28.718 1.812.313.531.676 1.043 1.094 1.531.414.48.852.996 1.313 1.547.332.356.554.75.671 1.188.125.43.125.828 0 1.203a1.383 1.383 0 0 1-.718.844c-.23.113-.453.175-.672.187a5.26 5.26 0 0 1-.656-.016 6.347 6.347 0 0 0-.672-.03c-.23 0-.469.054-.719.171a2.109 2.109 0 0 0-.703.453c-.2.207-.309.469-.328.781v.079c.008.039.023.07.047.093.03.032.039.055.03.078-.01.02-.042.032-.093.032-.293-.024-.547-.157-.766-.407a1.86 1.86 0 0 1-.406-.78c-.086-.337-.058-.634.078-.891.145-.258.364-.47.657-.625.226-.125.46-.188.703-.188.25-.008.492.027.734.11.156.054.352.136.594.25.238.117.46.21.672.28.218.083.406.11.562.079.156-.031.242-.156.266-.375.02-.219-.059-.578-.235-1.078a7.583 7.583 0 0 0-.53-1.235c-.243-.488-.516-1-.829-1.53-.312-.532-.64-1.04-.984-1.532.093.336.175.742.25 1.219.07.48.101.964.093 1.453 0 .48-.09.918-.265 1.312a1.692 1.692 0 0 1-.86.89ZM263.432 290.903c.156-.07.32-.14.484-.203.156-.062.32-.129.484-.203.2-.102.352-.187.454-.25.093-.07.214-.148.359-.234.117-.051.215-.063.297-.032a.716.716 0 0 1 .25.125c.242.149.43.36.562.641.125.281.22.59.282.922.062.324.117.652.156.984.031.336.074.625.125.875.094.336.226.61.39.828.157.22.344.325.563.313.219-.008.473-.188.766-.531.02-.032.097-.141.234-.328a3.46 3.46 0 0 0 .406-.766c.133-.313.203-.656.203-1.031a2.135 2.135 0 0 0-.297-1.11 4.082 4.082 0 0 0-.703-.937c-.261-.25-.535-.5-.828-.75a.643.643 0 0 1-.125-.031.297.297 0 0 1-.078-.079c-.039-.093 0-.171.125-.234.219-.102.422-.191.61-.266.195-.082.406-.175.624-.28.227-.114.43-.223.61-.329.176-.113.367-.223.578-.328.125-.063.207-.047.25.047.02.031.02.07 0 .11a.173.173 0 0 0 0 .109 7.1 7.1 0 0 0 .25 1.703c.164.593.36 1.172.578 1.734.227.555.445 1.04.656 1.453.196.406.446.871.75 1.39.313.513.657 1.013 1.032 1.5.375.493.77.9 1.187 1.22.04.054.078.085.11.093.03 0 .062.024.093.063.04.094 0 .172-.125.234-.148.074-.308.14-.484.203a3.097 3.097 0 0 0-.485.203c-.199.094-.343.18-.437.25a2.326 2.326 0 0 1-.39.235c-.106.054-.2.062-.282.031a4.97 4.97 0 0 1-.25-.125 1.462 1.462 0 0 1-.547-.656 4.553 4.553 0 0 1-.297-.922c-.062-.332-.11-.66-.14-.984a5.554 5.554 0 0 0-.14-.86c-.095-.351-.228-.633-.392-.844-.156-.207-.351-.312-.578-.312-.218 0-.476.184-.765.547-.012.012-.09.117-.235.312-.136.2-.273.461-.406.782a2.92 2.92 0 0 0-.203 1.03c0 .368.101.743.312 1.126.22.367.454.672.704.922.257.25.53.492.812.718.063.043.102.07.125.079.031 0 .063.023.094.062.039.094.004.172-.11.234-.23.118-.445.211-.64.282-.188.062-.39.152-.61.265-.23.106-.433.215-.609.328-.18.118-.371.227-.578.329-.125.062-.207.046-.25-.047-.031-.04-.035-.078-.016-.11a.278.278 0 0 0 0-.14 6.2 6.2 0 0 0-.25-1.688 15.104 15.104 0 0 0-.593-1.75 18.484 18.484 0 0 0-.657-1.484c-.207-.414-.46-.875-.765-1.375a15.19 15.19 0 0 0-1-1.485 6.648 6.648 0 0 0-1.188-1.218 1.146 1.146 0 0 0-.11-.047.297.297 0 0 1-.077-.078c-.04-.094 0-.172.125-.235ZM281.33 294.072a4.642 4.642 0 0 1-.563.234 9.25 9.25 0 0 0-.562.235 7.965 7.965 0 0 0-.547.312 3.693 3.693 0 0 1-.532.297c-.117.062-.195.047-.234-.047-.031-.039-.043-.078-.031-.11a.582.582 0 0 0 .015-.14c.032-.695-.039-1.32-.203-1.875a8.512 8.512 0 0 0-.484-1.36c.082.344.148.735.203 1.173.05.437.063.875.031 1.312-.023.43-.12.813-.297 1.156-.168.344-.445.618-.828.813-.437.21-.89.2-1.359-.031-.457-.227-.82-.614-1.094-1.157a3.77 3.77 0 0 1-.375-1.25c-.039-.406-.07-.8-.094-1.187a3.822 3.822 0 0 0-.265-1.14 2.056 2.056 0 0 0-.469-.704 1.069 1.069 0 0 0-.766-.344c-.02-.02-.05-.023-.093-.015-.051 0-.086.015-.11.047-.02.054-.039.07-.062.046-.031-.02-.047-.046-.047-.078a1.03 1.03 0 0 1 .328-.703c.188-.176.383-.312.578-.406.43-.207.813-.25 1.156-.125a1.4 1.4 0 0 1 .797.687c.211.375.297.762.266 1.157-.04.386-.129.781-.266 1.187-.132.399-.242.793-.328 1.188-.07.324-.078.617-.015.875.054.25.164.453.328.61a.685.685 0 0 0 .578.202c.238-.02.504-.16.797-.422.383-.332.644-.738.781-1.218.133-.477.172-.985.11-1.516a5.44 5.44 0 0 0-.376-1.469 3.74 3.74 0 0 0-.656-1.047 4.619 4.619 0 0 0-.937-.812 1.499 1.499 0 0 0-.11-.063.239.239 0 0 1-.078-.093c-.039-.082-.004-.157.11-.22.218-.1.406-.179.562-.234.156-.062.344-.148.562-.265.227-.102.41-.195.547-.281.133-.094.313-.192.532-.297.125-.063.207-.051.25.031.02.043.023.086.015.125a.644.644 0 0 0-.031.125 5.04 5.04 0 0 0 .078 1.437c.094.47.219.891.375 1.266.164.375.3.668.406.875.102.211.254.492.453.844.196.344.454.7.766 1.062.32.368.688.672 1.094.922l.125.078c.031.012.062.04.094.078.039.094 0 .172-.125.235ZM282.17 284.833c.438-.207.91-.242 1.423-.11.519.126 1.019.407 1.5.844.488.438.894.98 1.218 1.625.32.657.504 1.309.547 1.953.05.637-.027 1.204-.234 1.704-.2.5-.516.855-.953 1.062-.282.148-.59.215-.922.203a2.778 2.778 0 0 1-1-.219c.144.336.191.602.14.797 0 .074-.03.125-.093.157a2.774 2.774 0 0 1-.328.125 1.73 1.73 0 0 0-.329.125c-.105.054-.21.117-.312.187a1.717 1.717 0 0 1-.297.188c-.125.062-.207.046-.25-.047-.031-.04-.035-.078-.016-.11a.499.499 0 0 0 .016-.156c0-.52-.082-1.078-.25-1.672a17.17 17.17 0 0 0-.61-1.719 22.007 22.007 0 0 0-.64-1.453 21.77 21.77 0 0 0-.766-1.39c-.3-.52-.632-1.024-1-1.516a6.733 6.733 0 0 0-1.187-1.25.643.643 0 0 1-.125-.031.297.297 0 0 1-.078-.078c-.04-.094 0-.172.125-.235.21-.101.39-.187.547-.25.148-.062.336-.144.562-.25.23-.113.414-.21.547-.297.137-.082.32-.18.547-.296.125-.063.21-.047.25.046a.12.12 0 0 1 .016.11.31.31 0 0 0-.032.125c.024.523.11 1.086.266 1.687.156.594.344 1.168.562 1.719.086-.363.227-.676.422-.937.2-.27.446-.485.735-.641Zm3.688 5.984c.258-.082.406-.27.438-.562.039-.29-.028-.64-.203-1.047a5.668 5.668 0 0 0-.766-1.297 6.687 6.687 0 0 0-1.172-1.156 5.26 5.26 0 0 0-1.219-.703c-.386-.157-.71-.192-.984-.11-.25.086-.395.274-.438.563-.039.293.024.648.188 1.062.168.407.433.836.797 1.282a7.98 7.98 0 0 0 1.172 1.156 4.59 4.59 0 0 0 1.203.703c.394.148.722.183.984.11Zm0 0"/></svg>