<svg xmlns="http://www.w3.org/2000/svg" version="1.0" viewBox="0 143.4 374.65 87.6"><defs><clipPath id="a"><path d="M0 143.398h79V231H0Zm0 0"/></clipPath><clipPath id="b"><path d="M3 161h78.75v36H3Zm0 0"/></clipPath></defs><g clip-path="url(#a)"><path fill="#0d1e2b" d="M42.754 143.45c-18.5 0-33.711 14.093-35.473 32.132l-.172 6.375-6.351 11.309a4.278 4.278 0 0 0 2.297 5.363l3.562 1.574a3.333 3.333 0 0 1 1.992 3.05v8.638c0 4.472 3.66 8.132 8.133 8.132l7.848-2.101A3.08 3.08 0 0 1 27.668 221v7.066c0 2.137 2.297 3.493 4.168 2.454l29.96-14.31a5.527 5.527 0 0 0 2.845-4.831v-4.145c12.152-7.605 13.754-21.332 13.761-28.097.024-19.653-15.996-35.692-35.648-35.688Zm0 61.91c-14.027 0-25.402-11.376-25.402-25.403s11.375-25.402 25.402-25.402c14.027 0 25.402 11.375 25.402 25.402 0 14.027-11.37 25.402-25.402 25.402Zm0 0"/></g><path fill="#5271ff" d="m7.113 181.844-.004.113-1.379 2.453h12.012c-.148-.84-.238-1.7-.305-2.566Zm0 0"/><path fill="#0d1e2b" d="m24.781 197.906.008.008-.008-.008Zm0 0"/><path fill="#5271ff" d="m60.723 161.984-.008.008a25.327 25.327 0 0 1 7.441 17.965c0 14.027-11.37 25.402-25.402 25.402-7.012 0-13.36-2.843-17.957-7.437l24.336 24.336L61.8 216.21a5.527 5.527 0 0 0 2.844-4.832v-4.145c11.843-7.414 13.664-20.644 13.757-27.57Zm0 0"/><g clip-path="url(#b)"><path fill="#ff66c4" d="M38.367 196.184a2.444 2.444 0 0 1-2.383-1.891l-4.148-17.664-2.047 3.902a2.444 2.444 0 0 1-2.168 1.313H6.152a2.45 2.45 0 0 1 0-4.903h19.989l4.406-8.414a2.454 2.454 0 0 1 4.558.578L38.367 183l4.528-19.316a2.446 2.446 0 0 1 2.32-1.891 2.46 2.46 0 0 1 2.418 1.77l5.172 17.917 2.164-3.425a2.452 2.452 0 0 1 2.07-1.145h22.086a2.451 2.451 0 0 1 0 4.903H58.387l-4.352 6.898a2.452 2.452 0 0 1-4.426-.629l-4.086-14.152-4.77 20.36a2.449 2.449 0 0 1-2.386 1.894Zm0 0"/></g><path fill="#f0f" d="M108.065 164.36c.57 0 1.141.039 1.703.11.57.062 1.145.093 1.72.093.695 0 1.253-.031 1.671-.094a8.86 8.86 0 0 1 1.438-.11c.406 0 .707.102.906.298.207.199.394.433.562.703.5.843.735 1.773.703 2.781-.03 1-.199 2.027-.5 3.078a43.419 43.419 0 0 1-1.015 3.094 27.992 27.992 0 0 0-.86 2.765c-.23 1.106-.273 2.094-.125 2.97.157.874.579 1.452 1.266 1.734.688.28 1.68.14 2.984-.422.102-.07.504-.29 1.204-.657.707-.375 1.472-.921 2.296-1.64.82-.719 1.516-1.613 2.079-2.688.57-1.07.812-2.328.718-3.765-.074-1.375-.312-2.614-.718-3.719a44.239 44.239 0 0 0-1.344-3.328 2.57 2.57 0 0 0-.281-.375.43.43 0 0 1-.125-.328c0-.332.234-.5.703-.5.8 0 1.531.039 2.187.11.656.062 1.399.093 2.235.093.812 0 1.55-.031 2.218-.094a21.18 21.18 0 0 1 2.22-.11c.425 0 .64.169.64.5a.445.445 0 0 1-.125.329c-.086.086-.157.21-.219.375-.742 1.574-1.305 3.351-1.688 5.328a52.774 52.774 0 0 0-.812 5.89 68.382 68.382 0 0 0-.219 5.172c0 1.512.07 3.243.219 5.188.156 1.95.426 3.914.812 5.89.383 1.97.946 3.747 1.688 5.329.062.168.133.289.219.36.082.062.125.179.125.343 0 .336-.215.5-.64.5-.544 0-1.11-.031-1.704-.094-.586-.07-1.156-.11-1.719-.11-.71 0-1.265.04-1.672.11a9.567 9.567 0 0 1-1.453.094c-.398 0-.687-.11-.875-.328a9.538 9.538 0 0 1-.531-.672 5.009 5.009 0 0 1-.703-2.766c.031-1.008.195-2.039.5-3.094a42.77 42.77 0 0 1 1-3.093c.375-1.008.644-1.93.812-2.766.27-1.144.32-2.144.157-3-.168-.851-.59-1.43-1.266-1.734-.668-.301-1.672-.149-3.016.453-.105.031-.5.242-1.187.625-.688.387-1.45.945-2.281 1.672-.836.718-1.54 1.617-2.11 2.687-.574 1.074-.808 2.328-.703 3.766.094 1.375.332 2.621.719 3.734.383 1.106.832 2.211 1.344 3.313.093.168.18.289.265.36.082.062.125.179.125.343 0 .336-.215.5-.64.5-.844 0-1.594-.031-2.25-.094-.649-.07-1.391-.11-2.235-.11-.804 0-1.543.04-2.219.11a23.77 23.77 0 0 1-2.203.094c-.437 0-.656-.164-.656-.5 0-.164.04-.281.125-.344.082-.07.16-.191.234-.36.727-1.581 1.286-3.378 1.672-5.39a53.16 53.16 0 0 0 .797-5.984c.156-1.977.235-3.723.235-5.235a63.9 63.9 0 0 0-.235-5.172 49.133 49.133 0 0 0-.797-5.765c-.386-1.926-.945-3.676-1.672-5.25a1.351 1.351 0 0 0-.234-.375.43.43 0 0 1-.125-.328c0-.332.219-.5.656-.5ZM153.471 186.641c0 .773.04 1.82.125 3.14.082 1.325.317 2.743.704 4.25a14.795 14.795 0 0 0 1.89 4.329c.102.136.188.246.25.328.07.086.11.21.11.375 0 .336-.22.5-.657.5-.406 0-.804-.031-1.187-.094a6.878 6.878 0 0 0-1.235-.11c-.335 0-.695.04-1.078.11a7.05 7.05 0 0 1-1.125.094c-.273 0-.46-.098-.562-.297-.438-.633-.703-1.473-.797-2.516-.742.868-1.574 1.555-2.5 2.063-.918.5-1.898.75-2.938.75-1.605 0-3.074-.578-4.406-1.735-1.324-1.156-2.383-2.71-3.172-4.671-.78-1.97-1.172-4.141-1.172-6.516 0-2.383.391-4.547 1.172-6.484.79-1.946 1.848-3.5 3.172-4.657 1.332-1.156 2.801-1.734 4.406-1.734 1.04 0 2.02.25 2.938.75.926.5 1.758 1.187 2.5 2.062.094-1.039.36-1.878.797-2.515.07-.195.258-.297.562-.297a6.3 6.3 0 0 1 1.125.11 6.71 6.71 0 0 0 1.078.093c.438 0 .848-.031 1.235-.094.383-.07.781-.109 1.187-.109.438 0 .657.168.657.5 0 .137-.04.246-.11.328a14.84 14.84 0 0 0-2.14 4.703c-.387 1.512-.622 2.922-.704 4.235a49.314 49.314 0 0 0-.125 3.109Zm-6.828 9.953c.895.137 1.602-.187 2.125-.969.52-.789.836-1.906.953-3.343.125-1.446-.03-3.079-.468-4.891a22.746 22.746 0 0 0-1.75-5.094c-.75-1.562-1.59-2.847-2.516-3.86-.918-1.007-1.828-1.577-2.734-1.702-.867-.133-1.57.195-2.11.984-.53.781-.851 1.887-.953 3.313-.105 1.43.047 3.062.453 4.906a23.019 23.019 0 0 0 1.766 5.078c.77 1.574 1.613 2.867 2.531 3.875.926 1 1.828 1.57 2.703 1.703ZM160.215 173.766c.8 0 1.468.04 2 .11.539.062 1.21.093 2.015.093.844 0 1.524-.031 2.047-.094.52-.07 1.18-.109 1.984-.109.438 0 .657.168.657.5 0 .137-.04.246-.11.328-.062.086-.148.211-.25.375-1.136 2.012-1.855 3.95-2.156 5.813-.305 1.855-.469 3.421-.5 4.703a37.873 37.873 0 0 1 1.063-3.719 20.62 20.62 0 0 1 1.765-3.844c.727-1.226 1.594-2.226 2.594-3 1.008-.77 2.203-1.156 3.578-1.156 1.57 0 2.879.574 3.922 1.719 1.039 1.136 1.562 2.492 1.562 4.062a7.129 7.129 0 0 1-.78 3.25 29.1 29.1 0 0 0-1.391 3.188c-.23.636-.215 1.199.046 1.687.27.48.774.656 1.516.531.238-.039.336.024.297.188-.305.844-.899 1.562-1.781 2.156-.887.586-1.766.89-2.641.922-1.105.031-2.023-.226-2.75-.781-.719-.55-1.2-1.242-1.437-2.078a4.33 4.33 0 0 1 .078-2.547c.289-.852.859-1.567 1.703-2.14a7.867 7.867 0 0 1 1.875-.907c.687-.238 1.367-.473 2.047-.703 1-.406 1.582-.844 1.75-1.313.164-.468.054-.882-.328-1.25-.387-.375-.938-.644-1.657-.812-.718-.164-1.48-.164-2.281 0-1.71.336-3.148 1.133-4.312 2.39a13.467 13.467 0 0 0-2.672 4.36c-.618 1.637-.97 3.262-1.063 4.875-.105 1.512.008 2.871.344 4.078.332 1.2.867 2.437 1.61 3.719.1.168.187.289.25.36.07.062.109.179.109.343 0 .336-.22.5-.657.5-.804 0-1.464-.031-1.984-.094-.523-.07-1.203-.11-2.047-.11-.805 0-1.476.04-2.015.11-.532.063-1.2.094-2 .094-.438 0-.657-.164-.657-.5 0-.164.032-.29.094-.375.07-.082.16-.192.266-.328a13.92 13.92 0 0 0 1.89-4.328c.375-1.508.602-2.926.688-4.25.082-1.32.125-2.368.125-3.141 0-.77-.043-1.805-.125-3.11-.086-1.312-.313-2.722-.688-4.234a13.96 13.96 0 0 0-1.89-4.328 4.197 4.197 0 0 0-.266-.375.528.528 0 0 1-.094-.328c0-.332.219-.5.657-.5ZM184.102 173.766c.8 0 1.468.04 2 .11.539.062 1.21.093 2.015.093.844 0 1.524-.031 2.047-.094.52-.07 1.18-.109 1.985-.109.437 0 .656.168.656.5 0 .137-.04.246-.11.328-.062.086-.148.211-.25.375-1.136 2.012-1.855 3.95-2.156 5.813-.305 1.855-.469 3.421-.5 4.703a37.873 37.873 0 0 1 1.063-3.719 20.62 20.62 0 0 1 1.765-3.844c.727-1.226 1.594-2.226 2.594-3 1.008-.77 2.203-1.156 3.578-1.156s2.535.484 3.485 1.453c.957.969 1.57 2.246 1.843 3.828.739-1.539 1.633-2.804 2.688-3.797 1.062-.988 2.242-1.484 3.547-1.484 1.644 0 2.976.672 4 2.016 1.02 1.336 1.53 2.992 1.53 4.968 0 1.543-.233 2.946-.702 4.203a74.485 74.485 0 0 1-1.453 3.625 11.483 11.483 0 0 0-.907 3.688 8.03 8.03 0 0 0 .407 2.797c.3.918.867 1.633 1.703 2.14.07.032.172.075.297.125a.464.464 0 0 0 .359.016c.164-.094.254-.098.266-.016.02.086 0 .196-.063.329a3.346 3.346 0 0 1-1.875 1.5c-.805.273-1.57.406-2.297.406-1.543 0-2.746-.43-3.61-1.297-.855-.875-1.312-1.953-1.374-3.234-.031-1.407.297-2.649.984-3.735a17.688 17.688 0 0 1 2.485-3.094 40.25 40.25 0 0 0 2.718-3.03c.633-.802 1.063-1.618 1.282-2.454.218-.844.203-1.598-.047-2.266-.25-.675-.742-1.164-1.469-1.468-.719-.301-1.7-.282-2.937.062-1.243.336-2.372.98-3.391 1.938a13.489 13.489 0 0 0-2.625 3.39 20.113 20.113 0 0 0-1.688 4.016c-.398 1.375-.625 2.668-.687 3.875a8.264 8.264 0 0 0 .36 2.797c.288.918.859 1.633 1.702 2.14.063.032.164.075.313.125.156.055.285.06.39.016.126-.094.204-.098.235-.016.039.086.023.196-.047.329a3.288 3.288 0 0 1-1.86 1.5 7.166 7.166 0 0 1-2.312.406c-1.543 0-2.75-.43-3.625-1.297-.867-.875-1.312-1.953-1.344-3.234-.043-1.407.27-2.649.938-3.735a17.065 17.065 0 0 1 2.469-3.094 37.111 37.111 0 0 0 2.718-3.03c.633-.802 1.063-1.618 1.282-2.454.218-.844.203-1.598-.047-2.266-.25-.675-.735-1.164-1.453-1.468-.72-.301-1.7-.282-2.938.062a8.196 8.196 0 0 0-4.015 2.453c-1.086 1.211-1.922 2.621-2.516 4.235a16.878 16.878 0 0 0-1.016 4.828c-.105 1.512.008 2.871.344 4.078.332 1.2.867 2.437 1.61 3.719.1.168.187.289.25.36.07.062.109.179.109.343 0 .336-.219.5-.656.5-.805 0-1.465-.031-1.985-.094-.523-.07-1.203-.11-2.047-.11-.804 0-1.476.04-2.015.11-.532.063-1.2.094-2 .094-.438 0-.657-.164-.657-.5 0-.164.032-.29.094-.375.07-.082.16-.192.266-.328a13.92 13.92 0 0 0 1.89-4.328c.375-1.508.602-2.926.688-4.25.082-1.32.125-2.368.125-3.141 0-.77-.043-1.805-.125-3.11-.086-1.312-.313-2.722-.688-4.234a13.96 13.96 0 0 0-1.89-4.328 4.197 4.197 0 0 0-.266-.375.528.528 0 0 1-.094-.328c0-.332.22-.5.657-.5ZM227.75 173.766c1.612 0 3.07.578 4.374 1.734 1.313 1.157 2.36 2.711 3.14 4.657.79 1.937 1.188 4.101 1.188 6.484 0 2.375-.398 4.547-1.187 6.516-.781 1.96-1.828 3.515-3.14 4.671-1.306 1.157-2.763 1.735-4.376 1.735-1.605 0-3.074-.578-4.406-1.735-1.324-1.156-2.383-2.71-3.172-4.671-.781-1.97-1.172-4.141-1.172-6.516 0-2.383.39-4.547 1.172-6.484.79-1.946 1.848-3.5 3.172-4.657 1.332-1.156 2.8-1.734 4.406-1.734Zm2.171 22.828c.895.137 1.602-.187 2.125-.969.52-.789.836-1.906.953-3.343.125-1.446-.031-3.079-.469-4.891a22.746 22.746 0 0 0-1.75-5.094c-.75-1.562-1.59-2.847-2.515-3.86-.918-1.007-1.828-1.577-2.735-1.702-.867-.133-1.57.195-2.109.984-.531.781-.852 1.887-.953 3.313-.106 1.43.047 3.062.453 4.906a23.019 23.019 0 0 0 1.766 5.078c.77 1.574 1.613 2.867 2.53 3.875.927 1 1.829 1.57 2.704 1.703ZM240.274 173.766c.8 0 1.469.04 2 .11.539.062 1.21.093 2.015.093.844 0 1.524-.031 2.047-.094.52-.07 1.18-.109 1.985-.109.437 0 .656.168.656.5 0 .137-.04.246-.11.328-.062.086-.148.211-.25.375-1.136 2.012-1.855 3.95-2.156 5.813-.304 1.855-.468 3.421-.5 4.703a37.873 37.873 0 0 1 1.063-3.719 20.62 20.62 0 0 1 1.765-3.844c.727-1.226 1.594-2.226 2.594-3 1.008-.77 2.203-1.156 3.578-1.156 1.602 0 2.914.672 3.938 2.016 1.031 1.336 1.547 2.992 1.547 4.968 0 1.543-.235 2.946-.703 4.203a67.262 67.262 0 0 1-1.47 3.625 10.484 10.484 0 0 0-.843 3.688 8.264 8.264 0 0 0 .36 2.797c.289.918.859 1.633 1.703 2.14.062.032.164.075.312.125.156.055.285.06.39.016.126-.094.204-.098.235-.016.04.086.024.196-.047.329a3.288 3.288 0 0 1-1.86 1.5 7.166 7.166 0 0 1-2.312.406c-1.543 0-2.75-.43-3.625-1.297-.867-.875-1.312-1.953-1.343-3.234-.043-1.407.27-2.649.937-3.735a17.065 17.065 0 0 1 2.469-3.094 37.111 37.111 0 0 0 2.719-3.03c.632-.802 1.062-1.618 1.28-2.454.22-.844.204-1.598-.046-2.266-.25-.675-.734-1.164-1.453-1.468-.719-.301-1.7-.282-2.938.062a8.196 8.196 0 0 0-4.015 2.453c-1.086 1.211-1.922 2.621-2.516 4.235a16.878 16.878 0 0 0-1.016 4.828c-.105 1.512.008 2.871.344 4.078.332 1.2.867 2.437 1.61 3.719.101.168.187.289.25.36.07.062.109.179.109.343 0 .336-.219.5-.656.5-.805 0-1.465-.031-1.985-.094-.523-.07-1.203-.11-2.047-.11-.804 0-1.476.04-2.015.11-.531.063-1.2.094-2 .094-.438 0-.656-.164-.656-.5 0-.164.03-.29.093-.375.07-.082.16-.192.266-.328a13.92 13.92 0 0 0 1.89-4.328c.376-1.508.602-2.926.688-4.25.082-1.32.125-2.368.125-3.141 0-.77-.043-1.805-.125-3.11-.086-1.312-.312-2.722-.687-4.234a13.96 13.96 0 0 0-1.891-4.328 4.197 4.197 0 0 0-.266-.375.528.528 0 0 1-.093-.328c0-.332.218-.5.656-.5ZM269.187 199.61c-1.649 0-2.98-.664-4-2-1.024-1.344-1.531-3.004-1.531-4.985 0-1.582.234-3 .703-4.25a60.94 60.94 0 0 1 1.484-3.64c.52-1.176.813-2.407.875-3.688a7.027 7.027 0 0 0-.344-2.765c-.304-.907-.89-1.61-1.765-2.11a.928.928 0 0 0-.297-.172c-.137-.05-.258-.039-.36.032-.136.062-.218.054-.25-.032-.03-.082-.015-.191.047-.328.438-.77 1.055-1.281 1.86-1.531a7.901 7.901 0 0 1 2.328-.375c1.539 0 2.742.437 3.61 1.312.874.868 1.327 1.934 1.359 3.204.039 1.418-.282 2.68-.97 3.78a16.635 16.635 0 0 1-2.5 3.095 35.557 35.557 0 0 0-2.718 2.984c-.637.812-1.062 1.648-1.281 2.5-.219.855-.203 1.617.047 2.281.257.668.75 1.149 1.468 1.438.72.281 1.696.258 2.938-.078a7.82 7.82 0 0 0 3.64-2.079 12.452 12.452 0 0 0 2.5-3.609 15.655 15.655 0 0 0 1.282-4.297c.219-1.488.242-2.906.078-4.25a11.76 11.76 0 0 0-.734-2.61 18.37 18.37 0 0 0-1.188-2.421 1.117 1.117 0 0 0-.219-.375.43.43 0 0 1-.125-.328c0-.363.219-.547.657-.547.832 0 1.507.043 2.03.125.52.086 1.18.125 1.985.125.844 0 1.524-.04 2.047-.125.52-.082 1.18-.125 1.984-.125.438 0 .657.184.657.547 0 .137-.04.246-.11.328-.062.086-.148.21-.25.375a14.194 14.194 0 0 0-1.39 2.844 24.812 24.812 0 0 0-.828 2.937c-.43 2.25-.579 4.375-.454 6.375.133 1.992.454 3.992.954 6a550.27 550.27 0 0 0 1.671 6.438c.438 1.539.508 3.031.22 4.468-.282 1.446-.872 2.63-1.766 3.547-.887.926-1.997 1.391-3.329 1.391-.843 0-1.605-.148-2.28-.438a12.81 12.81 0 0 1-1.907-1 16.225 16.225 0 0 0-1.906-1.062c-.668-.313-1.438-.484-2.313-.516a6.954 6.954 0 0 0-2.719.36 3.58 3.58 0 0 0-2.062 1.703c-.031.062-.074.16-.125.297a.464.464 0 0 0-.016.36c.063.132.055.218-.015.25-.063.03-.164.015-.297-.048-.867-.511-1.43-1.277-1.688-2.297-.25-1.023-.27-2-.062-2.937.226-1.074.734-1.887 1.515-2.438.79-.554 1.723-.843 2.797-.875.875-.043 1.66.114 2.36.47a8.097 8.097 0 0 1 1.968 1.39c.407.394.868.922 1.391 1.578.52.656 1.047 1.258 1.578 1.812.54.551 1.063.895 1.563 1.032.5.132.93-.102 1.297-.704.375-.605.66-1.761.859-3.468.176-1.211.254-2.696.234-4.453a108.05 108.05 0 0 0-.234-5.657 65.694 65.694 0 0 0-.64-5.937 49.395 49.395 0 0 1-1.048 3.969 25.092 25.092 0 0 1-1.75 4.359c-.718 1.387-1.617 2.543-2.687 3.469-1.074.918-2.352 1.375-3.828 1.375ZM302.33 164.36c.57 0 1.14.039 1.703.11.57.062 1.145.093 1.72.093.694 0 1.253-.031 1.671-.094a8.86 8.86 0 0 1 1.437-.11c.407 0 .707.102.907.298.207.199.394.433.562.703.5.843.735 1.773.703 2.781-.03 1-.199 2.027-.5 3.078a43.419 43.419 0 0 1-1.015 3.094 27.992 27.992 0 0 0-.86 2.765c-.23 1.106-.273 2.094-.125 2.97.157.874.578 1.452 1.266 1.734.687.28 1.68.14 2.984-.422.102-.07.504-.29 1.203-.657.707-.375 1.473-.921 2.297-1.64.82-.719 1.516-1.613 2.078-2.688.57-1.07.813-2.328.72-3.765-.075-1.375-.313-2.614-.72-3.719a44.239 44.239 0 0 0-1.343-3.328 2.57 2.57 0 0 0-.282-.375.43.43 0 0 1-.125-.328c0-.332.235-.5.704-.5.8 0 1.53.039 2.187.11.656.062 1.399.093 2.234.093.813 0 1.551-.031 2.22-.094a21.18 21.18 0 0 1 2.218-.11c.426 0 .64.169.64.5a.445.445 0 0 1-.124.329c-.086.086-.157.21-.22.375-.741 1.574-1.304 3.351-1.687 5.328a52.774 52.774 0 0 0-.812 5.89 68.382 68.382 0 0 0-.219 5.172c0 1.512.07 3.243.219 5.188.156 1.95.426 3.914.812 5.89.383 1.97.946 3.747 1.688 5.329.062.168.133.289.219.36.082.062.125.179.125.343 0 .336-.215.5-.641.5-.543 0-1.11-.031-1.703-.094-.586-.07-1.156-.11-1.719-.11-.71 0-1.266.04-1.672.11a9.567 9.567 0 0 1-1.453.094c-.398 0-.687-.11-.875-.328a9.538 9.538 0 0 1-.531-.672 5.009 5.009 0 0 1-.703-2.766c.031-1.008.195-2.039.5-3.094a42.77 42.77 0 0 1 1-3.093c.375-1.008.644-1.93.812-2.766.27-1.144.32-2.144.156-3-.168-.851-.59-1.43-1.265-1.734-.668-.301-1.672-.149-3.016.453-.105.031-.5.242-1.187.625-.688.387-1.45.945-2.282 1.672-.835.718-1.539 1.617-2.109 2.687-.574 1.074-.809 2.328-.703 3.766.094 1.375.332 2.621.719 3.734.383 1.106.832 2.211 1.343 3.313.094.168.18.289.266.36.082.062.125.179.125.343 0 .336-.215.5-.64.5-.844 0-1.594-.031-2.25-.094-.649-.07-1.391-.11-2.235-.11-.805 0-1.543.04-2.219.11a23.77 23.77 0 0 1-2.203.094c-.437 0-.656-.164-.656-.5 0-.164.039-.281.125-.344.082-.07.16-.191.234-.36.727-1.581 1.285-3.378 1.672-5.39a53.16 53.16 0 0 0 .797-5.984c.156-1.977.234-3.723.234-5.235a63.9 63.9 0 0 0-.234-5.172 49.133 49.133 0 0 0-.797-5.765c-.387-1.926-.945-3.676-1.672-5.25a1.351 1.351 0 0 0-.234-.375.43.43 0 0 1-.125-.328c0-.332.219-.5.656-.5ZM350.158 199.563c-.804 0-1.465-.031-1.984-.094-.524-.07-1.203-.11-2.047-.11-.805 0-1.477.04-2.016.11-.53.063-1.199.094-2 .094-.437 0-.656-.164-.656-.5 0-.164.031-.281.094-.344.07-.07.156-.191.25-.36 1.144-2.007 1.875-3.952 2.187-5.827.32-1.883.5-3.446.532-4.688a34.162 34.162 0 0 1-1.11 3.719 21.865 21.865 0 0 1-1.781 3.86c-.719 1.218-1.586 2.214-2.594 2.984-1 .773-2.187 1.156-3.562 1.156-1.617 0-2.934-.672-3.953-2.016-1.024-1.344-1.532-3-1.532-4.969 0-1.582.235-3 .703-4.25a82.172 82.172 0 0 1 1.454-3.64c.507-1.176.796-2.406.859-3.688a7.027 7.027 0 0 0-.344-2.765c-.304-.907-.875-1.61-1.719-2.11a.928.928 0 0 0-.296-.172c-.137-.05-.258-.046-.36.016-.136.106-.23.117-.281.031-.04-.082-.031-.191.031-.328.469-.77 1.102-1.281 1.906-1.531a7.901 7.901 0 0 1 2.329-.375c1.539 0 2.738.437 3.593 1.312.852.868 1.297 1.934 1.328 3.204.07 1.418-.234 2.671-.921 3.765a17.625 17.625 0 0 1-2.5 3.078 39.298 39.298 0 0 0-2.72 3.016c-.636.812-1.062 1.637-1.28 2.469-.22.836-.204 1.59.046 2.265.258.668.75 1.153 1.47 1.453.718.305 1.695.29 2.937-.046a8.277 8.277 0 0 0 4-2.47c1.093-1.206 1.941-2.624 2.547-4.25.601-1.624.937-3.237 1-4.843.101-1.476-.016-2.82-.36-4.031-.336-1.207-.87-2.445-1.61-3.719a2.798 2.798 0 0 0-.25-.375.528.528 0 0 1-.093-.328c0-.332.219-.5.656-.5.801 0 1.47.04 2 .11.54.062 1.211.093 2.016.093.844 0 1.523-.031 2.047-.094.52-.07 1.18-.109 1.984-.109.438 0 .656.168.656.5 0 .137-.039.246-.109.328a14.84 14.84 0 0 0-2.14 4.703c-.387 1.512-.622 2.922-.704 4.235a49.314 49.314 0 0 0-.125 3.109c0 .773.04 1.82.125 3.14.082 1.325.317 2.743.703 4.25a14.795 14.795 0 0 0 1.891 4.329c.102.136.188.246.25.328.07.086.11.21.11.375 0 .336-.22.5-.657.5ZM365.948 173.766c1.602 0 3.055.578 4.36 1.734 1.312 1.157 2.363 2.711 3.156 4.657.789 1.937 1.187 4.101 1.187 6.484 0 2.375-.398 4.547-1.187 6.516-.793 1.96-1.844 3.515-3.156 4.671-1.305 1.157-2.758 1.735-4.36 1.735a6.395 6.395 0 0 1-3-.75c-.95-.508-1.812-1.211-2.594-2.11-.062 1.2-.296 2.055-.703 2.563a.606.606 0 0 1-.547.297c-.336 0-.703-.04-1.109-.125a5.717 5.717 0 0 0-1.156-.125c-.367 0-.75.043-1.156.125a5.803 5.803 0 0 1-1.204.125c-.437 0-.656-.164-.656-.5 0-.164.031-.281.094-.344.07-.07.176-.191.312-.36.739-1.581 1.29-3.359 1.657-5.327.363-1.977.613-3.946.75-5.907.132-1.968.203-3.707.203-5.218 0-1.508-.07-3.227-.203-5.157a53.443 53.443 0 0 0-.75-5.859c-.368-1.977-.918-3.754-1.657-5.328l-.312-.375a.528.528 0 0 1-.094-.328c0-.332.219-.5.656-.5.801 0 1.461.027 1.985.078.52.043 1.18.062 1.984.062.875 0 1.563-.02 2.063-.062.5-.05 1.172-.078 2.015-.078.469 0 .703.168.703.5a.404.404 0 0 1-.156.328c-.094.086-.18.21-.25.375-.742 1.543-1.305 3.312-1.687 5.312a55.737 55.737 0 0 0-.828 5.86c.77-.946 1.632-1.676 2.593-2.188a6.295 6.295 0 0 1 3.047-.781Zm2.156 22.828c.875.137 1.579-.187 2.11-.969.539-.789.86-1.914.953-3.375.101-1.457-.043-3.093-.438-4.906a20.832 20.832 0 0 0-1.718-5.047c-.774-1.562-1.621-2.847-2.547-3.86-.918-1.007-1.828-1.577-2.735-1.702-.906-.133-1.62.195-2.14.984-.524.781-.836 1.899-.938 3.344-.093 1.437.063 3.062.469 4.875.395 1.844.977 3.547 1.75 5.11.77 1.554 1.617 2.835 2.547 3.843.926 1 1.82 1.57 2.687 1.703Zm0 0"/><path fill="#0ff" d="M104.609 163.688c.57 0 1.14.039 1.703.11.57.062 1.145.093 1.719.093.695 0 1.254-.031 1.672-.094a8.86 8.86 0 0 1 1.437-.11c.406 0 .707.102.906.298.207.199.395.433.563.703.5.844.734 1.773.703 2.781-.031 1-.2 2.027-.5 3.078a43.419 43.419 0 0 1-1.016 3.094 27.992 27.992 0 0 0-.859 2.766c-.23 1.105-.273 2.093-.125 2.968.156.875.578 1.454 1.266 1.735.687.281 1.68.14 2.984-.422.102-.07.504-.29 1.203-.656.707-.375 1.473-.922 2.297-1.641.82-.719 1.516-1.613 2.078-2.687.57-1.07.813-2.329.719-3.766-.074-1.375-.313-2.613-.719-3.719a44.239 44.239 0 0 0-1.344-3.328 2.57 2.57 0 0 0-.28-.375.43.43 0 0 1-.126-.328c0-.332.235-.5.703-.5.801 0 1.532.039 2.188.11.656.062 1.398.093 2.234.093.813 0 1.55-.031 2.219-.094a21.18 21.18 0 0 1 2.219-.11c.425 0 .64.169.64.5a.445.445 0 0 1-.125.329c-.086.086-.156.21-.218.375-.743 1.574-1.305 3.352-1.688 5.328a52.774 52.774 0 0 0-.812 5.89 68.382 68.382 0 0 0-.22 5.173c0 1.511.071 3.242.22 5.187.156 1.95.425 3.914.812 5.89.383 1.97.945 3.747 1.688 5.329.062.168.132.289.218.36.082.062.125.179.125.343 0 .336-.215.5-.64.5-.543 0-1.11-.031-1.703-.094-.586-.07-1.157-.11-1.72-.11-.71 0-1.265.04-1.671.11a9.567 9.567 0 0 1-1.453.094c-.399 0-.688-.11-.875-.328a9.538 9.538 0 0 1-.531-.672 5.009 5.009 0 0 1-.704-2.766c.032-1.007.196-2.039.5-3.093a42.77 42.77 0 0 1 1-3.094c.375-1.008.645-1.93.813-2.766.27-1.144.32-2.144.156-3-.168-.851-.59-1.43-1.265-1.734-.668-.3-1.672-.149-3.016.453-.106.031-.5.242-1.188.625-.687.387-1.449.945-2.28 1.672-.837.719-1.54 1.617-2.11 2.687-.574 1.075-.809 2.329-.703 3.766.093 1.375.332 2.621.718 3.734.383 1.106.832 2.211 1.344 3.313.094.168.18.289.266.36.082.062.125.179.125.343 0 .336-.215.5-.64.5-.845 0-1.595-.031-2.25-.094-.65-.07-1.391-.11-2.235-.11-.805 0-1.543.04-2.219.11a23.77 23.77 0 0 1-2.203.094c-.438 0-.656-.164-.656-.5 0-.164.039-.281.125-.344.082-.07.16-.191.234-.36.727-1.581 1.285-3.378 1.672-5.39a53.16 53.16 0 0 0 .797-5.984c.156-1.977.234-3.723.234-5.234a63.9 63.9 0 0 0-.234-5.172 49.133 49.133 0 0 0-.797-5.766c-.387-1.926-.945-3.676-1.672-5.25a1.351 1.351 0 0 0-.234-.375.43.43 0 0 1-.125-.328c0-.332.218-.5.656-.5ZM150.015 185.97c0 .773.04 1.82.125 3.14.082 1.324.316 2.742.703 4.25a14.795 14.795 0 0 0 1.89 4.328c.102.137.188.246.25.328.071.086.11.21.11.375 0 .336-.219.5-.656.5-.406 0-.805-.031-1.188-.094a6.878 6.878 0 0 0-1.234-.11c-.336 0-.695.04-1.078.11a7.05 7.05 0 0 1-1.125.094c-.274 0-.461-.098-.563-.297-.437-.633-.703-1.473-.796-2.515-.743.867-1.575 1.554-2.5 2.062-.918.5-1.899.75-2.938.75-1.605 0-3.074-.578-4.406-1.734-1.324-1.157-2.383-2.711-3.172-4.672-.781-1.969-1.172-4.14-1.172-6.516 0-2.383.39-4.547 1.172-6.484.789-1.946 1.848-3.5 3.172-4.656 1.332-1.157 2.8-1.735 4.406-1.735 1.04 0 2.02.25 2.938.75.925.5 1.757 1.188 2.5 2.063.093-1.04.359-1.88.796-2.516.07-.195.258-.297.563-.297a6.3 6.3 0 0 1 1.125.11 6.71 6.71 0 0 0 1.078.093c.438 0 .848-.031 1.234-.093.383-.07.782-.11 1.188-.11.437 0 .656.168.656.5 0 .137-.039.246-.11.328a14.84 14.84 0 0 0-2.14 4.703c-.387 1.512-.62 2.922-.703 4.235a49.314 49.314 0 0 0-.125 3.11Zm-6.828 9.952c.894.137 1.601-.187 2.125-.968.52-.79.836-1.907.953-3.344.125-1.446-.031-3.078-.469-4.89a22.746 22.746 0 0 0-1.75-5.095c-.75-1.562-1.59-2.847-2.515-3.859-.918-1.008-1.828-1.578-2.735-1.703-.867-.133-1.57.195-2.11.984-.53.782-.85 1.887-.952 3.313-.106 1.43.047 3.062.453 4.906a23.019 23.019 0 0 0 1.766 5.078c.77 1.574 1.613 2.867 2.53 3.875.927 1 1.829 1.57 2.704 1.703ZM156.758 173.094c.8 0 1.469.04 2 .11.54.062 1.211.093 2.016.093.843 0 1.523-.031 2.047-.093.52-.07 1.18-.11 1.984-.11.437 0 .656.168.656.5 0 .137-.039.246-.11.328-.062.086-.148.211-.25.375-1.136 2.012-1.855 3.95-2.155 5.813-.305 1.855-.47 3.422-.5 4.703a37.873 37.873 0 0 1 1.062-3.719 20.62 20.62 0 0 1 1.766-3.844c.726-1.226 1.593-2.226 2.593-3 1.008-.77 2.204-1.156 3.579-1.156 1.57 0 2.879.574 3.921 1.719 1.04 1.137 1.563 2.492 1.563 4.062a7.129 7.129 0 0 1-.781 3.25 29.1 29.1 0 0 0-1.39 3.188c-.231.637-.216 1.2.046 1.687.27.48.773.657 1.516.532.238-.04.336.023.296.187-.304.844-.898 1.563-1.78 2.156-.887.586-1.766.891-2.641.922-1.106.032-2.024-.226-2.75-.781-.72-.55-1.2-1.242-1.438-2.078a4.33 4.33 0 0 1 .078-2.547c.29-.852.86-1.566 1.703-2.14a7.867 7.867 0 0 1 1.875-.907c.688-.238 1.368-.473 2.047-.703 1-.406 1.582-.844 1.75-1.312.164-.47.055-.883-.328-1.25-.387-.375-.937-.645-1.656-.813-.719-.164-1.48-.164-2.281 0-1.711.336-3.149 1.133-4.313 2.39a13.467 13.467 0 0 0-2.672 4.36c-.617 1.637-.969 3.262-1.062 4.875-.106 1.512.008 2.871.343 4.078.333 1.2.868 2.438 1.61 3.719.101.168.187.289.25.36.07.062.11.179.11.343 0 .336-.22.5-.657.5-.805 0-1.465-.031-1.984-.094-.524-.07-1.204-.11-2.047-.11-.805 0-1.477.04-2.016.11-.531.063-1.2.094-2 .094-.437 0-.656-.164-.656-.5 0-.164.031-.29.094-.375.07-.082.16-.191.265-.328a13.92 13.92 0 0 0 1.89-4.328c.376-1.508.602-2.926.688-4.25.082-1.32.125-2.367.125-3.14 0-.77-.043-1.806-.125-3.11-.086-1.313-.312-2.723-.687-4.235a13.96 13.96 0 0 0-1.89-4.328 4.197 4.197 0 0 0-.266-.375.528.528 0 0 1-.094-.328c0-.332.219-.5.656-.5ZM180.645 173.094c.801 0 1.469.04 2 .11.54.062 1.211.093 2.016.093.844 0 1.523-.031 2.047-.093.52-.07 1.18-.11 1.984-.11.438 0 .656.168.656.5 0 .137-.039.246-.109.328-.063.086-.148.211-.25.375-1.137 2.012-1.856 3.95-2.156 5.813-.305 1.855-.469 3.422-.5 4.703a37.873 37.873 0 0 1 1.062-3.719 20.62 20.62 0 0 1 1.766-3.844c.726-1.226 1.594-2.226 2.594-3 1.007-.77 2.203-1.156 3.578-1.156s2.535.485 3.484 1.453c.957.969 1.57 2.246 1.844 3.828.738-1.539 1.633-2.804 2.687-3.796 1.063-.989 2.243-1.485 3.547-1.485 1.645 0 2.977.672 4 2.016 1.02 1.336 1.531 2.992 1.531 4.969 0 1.542-.234 2.945-.703 4.203a74.485 74.485 0 0 1-1.453 3.625 11.483 11.483 0 0 0-.906 3.687 8.03 8.03 0 0 0 .406 2.797c.301.918.867 1.633 1.703 2.14.07.032.172.075.297.126a.464.464 0 0 0 .36.015c.164-.093.253-.097.265-.015.02.086 0 .195-.062.328a3.346 3.346 0 0 1-1.875 1.5c-.805.273-1.57.406-2.297.406-1.543 0-2.746-.43-3.61-1.297-.855-.875-1.312-1.953-1.375-3.234-.03-1.406.297-2.649.985-3.735a17.688 17.688 0 0 1 2.484-3.093 40.25 40.25 0 0 0 2.719-3.032c.633-.8 1.062-1.617 1.281-2.453.219-.843.203-1.597-.047-2.265-.25-.676-.742-1.164-1.468-1.47-.72-.3-1.7-.28-2.938.063-1.242.336-2.371.98-3.39 1.938a13.489 13.489 0 0 0-2.626 3.39 20.113 20.113 0 0 0-1.687 4.016c-.398 1.375-.625 2.668-.688 3.875a8.264 8.264 0 0 0 .36 2.797c.289.918.86 1.633 1.703 2.14.062.032.164.075.312.126.157.054.286.058.391.015.125-.093.203-.097.234-.015.04.086.024.195-.046.328a3.288 3.288 0 0 1-1.86 1.5 7.166 7.166 0 0 1-2.312.406c-1.543 0-2.75-.43-3.625-1.297-.867-.875-1.313-1.953-1.344-3.234-.043-1.406.27-2.649.937-3.735a17.065 17.065 0 0 1 2.47-3.093 37.111 37.111 0 0 0 2.718-3.032c.633-.8 1.062-1.617 1.281-2.453.219-.843.203-1.597-.047-2.265-.25-.676-.734-1.164-1.453-1.47-.719-.3-1.699-.28-2.937.063a8.196 8.196 0 0 0-4.016 2.454c-1.086 1.21-1.922 2.62-2.516 4.234a16.878 16.878 0 0 0-1.015 4.828c-.106 1.512.008 2.871.344 4.078.332 1.2.867 2.438 1.609 3.719.102.168.187.289.25.36.07.062.11.179.11.343 0 .336-.22.5-.657.5-.805 0-1.465-.031-1.984-.094-.524-.07-1.203-.11-2.047-.11-.805 0-1.477.04-2.016.11-.531.063-1.199.094-2 .094-.437 0-.656-.164-.656-.5 0-.164.031-.29.094-.375.07-.082.16-.191.265-.328a13.92 13.92 0 0 0 1.891-4.328c.375-1.508.602-2.926.687-4.25.082-1.32.125-2.367.125-3.14 0-.77-.043-1.806-.125-3.11-.085-1.313-.312-2.723-.687-4.235a13.96 13.96 0 0 0-1.89-4.328 4.197 4.197 0 0 0-.266-.375.528.528 0 0 1-.094-.328c0-.332.219-.5.656-.5ZM224.293 173.094c1.613 0 3.07.578 4.375 1.735 1.312 1.156 2.36 2.71 3.14 4.656.79 1.937 1.188 4.101 1.188 6.484 0 2.375-.399 4.547-1.188 6.516-.78 1.96-1.828 3.515-3.14 4.672-1.305 1.156-2.762 1.734-4.375 1.734-1.606 0-3.074-.578-4.407-1.734-1.324-1.157-2.382-2.711-3.171-4.672-.782-1.969-1.172-4.14-1.172-6.516 0-2.383.39-4.547 1.172-6.484.789-1.946 1.847-3.5 3.171-4.656 1.333-1.157 2.801-1.735 4.407-1.735Zm2.172 22.828c.894.137 1.601-.187 2.125-.968.52-.79.836-1.907.953-3.344.125-1.446-.032-3.078-.469-4.89a22.746 22.746 0 0 0-1.75-5.095c-.75-1.562-1.59-2.847-2.516-3.859-.918-1.008-1.828-1.578-2.734-1.703-.867-.133-1.57.195-2.11.984-.53.782-.85 1.887-.953 3.313-.105 1.43.047 3.062.454 4.906a23.019 23.019 0 0 0 1.765 5.078c.77 1.574 1.614 2.867 2.531 3.875.926 1 1.829 1.57 2.704 1.703ZM236.817 173.094c.801 0 1.47.04 2 .11.54.062 1.211.093 2.016.093.844 0 1.523-.031 2.047-.093.52-.07 1.18-.11 1.984-.11.438 0 .657.168.657.5 0 .137-.04.246-.11.328-.062.086-.148.211-.25.375-1.137 2.012-1.855 3.95-2.156 5.813-.305 1.855-.469 3.422-.5 4.703a37.873 37.873 0 0 1 1.062-3.719 20.62 20.62 0 0 1 1.766-3.844c.727-1.226 1.594-2.226 2.594-3 1.008-.77 2.203-1.156 3.578-1.156 1.601 0 2.914.672 3.937 2.016 1.032 1.336 1.547 2.992 1.547 4.969 0 1.542-.234 2.945-.703 4.203a67.262 67.262 0 0 1-1.469 3.625 10.484 10.484 0 0 0-.843 3.687 8.264 8.264 0 0 0 .359 2.797c.29.918.86 1.633 1.703 2.14.063.032.164.075.313.126.156.054.285.058.39.015.125-.093.203-.097.235-.015.039.086.023.195-.047.328a3.288 3.288 0 0 1-1.86 1.5 7.166 7.166 0 0 1-2.312.406c-1.543 0-2.75-.43-3.625-1.297-.867-.875-1.313-1.953-1.344-3.234-.043-1.406.27-2.649.938-3.735a17.065 17.065 0 0 1 2.468-3.093 37.111 37.111 0 0 0 2.72-3.032c.632-.8 1.062-1.617 1.28-2.453.22-.843.204-1.597-.046-2.265-.25-.676-.735-1.164-1.454-1.47-.718-.3-1.699-.28-2.937.063a8.196 8.196 0 0 0-4.016 2.454c-1.086 1.21-1.922 2.62-2.515 4.234a16.878 16.878 0 0 0-1.016 4.828c-.105 1.512.008 2.871.344 4.078.332 1.2.867 2.438 1.61 3.719.1.168.187.289.25.36.07.062.109.179.109.343 0 .336-.22.5-.657.5-.804 0-1.465-.031-1.984-.094-.524-.07-1.203-.11-2.047-.11-.805 0-1.477.04-2.016.11-.53.063-1.199.094-2 .094-.437 0-.656-.164-.656-.5 0-.164.031-.29.094-.375.07-.082.16-.191.266-.328a13.92 13.92 0 0 0 1.89-4.328c.375-1.508.602-2.926.688-4.25.082-1.32.125-2.367.125-3.14 0-.77-.043-1.806-.125-3.11-.086-1.313-.313-2.723-.688-4.235a13.96 13.96 0 0 0-1.89-4.328 4.197 4.197 0 0 0-.266-.375.528.528 0 0 1-.094-.328c0-.332.219-.5.656-.5ZM265.73 198.938c-1.648 0-2.98-.664-4-2-1.023-1.344-1.53-3.004-1.53-4.984 0-1.583.233-3 .702-4.25a60.94 60.94 0 0 1 1.485-3.641c.52-1.176.812-2.406.875-3.688a7.027 7.027 0 0 0-.344-2.765c-.305-.906-.89-1.61-1.766-2.11a.928.928 0 0 0-.297-.171c-.136-.051-.257-.04-.359.03-.137.063-.219.055-.25-.03-.031-.083-.016-.192.047-.329.437-.77 1.055-1.28 1.86-1.53a7.901 7.901 0 0 1 2.327-.376c1.54 0 2.743.438 3.61 1.313.875.867 1.328 1.933 1.36 3.203.038 1.418-.282 2.68-.97 3.781a16.635 16.635 0 0 1-2.5 3.094 35.557 35.557 0 0 0-2.718 2.984c-.637.813-1.063 1.649-1.282 2.5-.218.856-.203 1.617.047 2.281.258.668.75 1.149 1.469 1.438.719.281 1.695.258 2.937-.078a7.82 7.82 0 0 0 3.641-2.078 12.452 12.452 0 0 0 2.5-3.61 15.655 15.655 0 0 0 1.281-4.297c.22-1.488.243-2.906.078-4.25a11.76 11.76 0 0 0-.734-2.609 18.37 18.37 0 0 0-1.187-2.422 1.117 1.117 0 0 0-.22-.375.43.43 0 0 1-.124-.328c0-.363.219-.547.656-.547.832 0 1.508.043 2.031.125.52.086 1.18.125 1.985.125.843 0 1.523-.039 2.047-.125.52-.082 1.18-.125 1.984-.125.437 0 .656.184.656.547 0 .137-.039.246-.11.328-.062.086-.148.211-.25.375a14.194 14.194 0 0 0-1.39 2.844 24.812 24.812 0 0 0-.828 2.937c-.43 2.25-.578 4.375-.453 6.375.133 1.993.453 3.993.953 6a550.27 550.27 0 0 0 1.672 6.438c.437 1.539.508 3.031.219 4.469-.282 1.445-.871 2.629-1.766 3.547-.887.925-1.996 1.39-3.328 1.39-.844 0-1.605-.148-2.281-.437a12.81 12.81 0 0 1-1.907-1 16.225 16.225 0 0 0-1.906-1.063c-.668-.312-1.437-.484-2.312-.515a6.954 6.954 0 0 0-2.719.359 3.58 3.58 0 0 0-2.063 1.703c-.03.063-.074.16-.125.297a.464.464 0 0 0-.015.36c.062.132.055.218-.016.25-.062.03-.164.015-.297-.048-.867-.511-1.43-1.277-1.687-2.296-.25-1.024-.27-2-.063-2.938.227-1.074.735-1.887 1.516-2.437.789-.555 1.723-.844 2.797-.875.875-.043 1.66.113 2.36.468a8.097 8.097 0 0 1 1.968 1.39c.406.395.867.923 1.39 1.579.52.656 1.047 1.258 1.579 1.813.539.55 1.062.894 1.562 1.03.5.134.93-.1 1.297-.702.375-.606.66-1.762.86-3.47.175-1.21.253-2.694.234-4.452a108.05 108.05 0 0 0-.235-5.656 65.694 65.694 0 0 0-.64-5.938 49.395 49.395 0 0 1-1.047 3.969 25.092 25.092 0 0 1-1.75 4.36c-.719 1.386-1.617 2.542-2.688 3.468-1.074.918-2.351 1.375-3.828 1.375ZM298.874 163.688c.57 0 1.14.039 1.703.11.57.062 1.144.093 1.719.093.695 0 1.254-.031 1.672-.094a8.86 8.86 0 0 1 1.437-.11c.406 0 .707.102.906.298.207.199.395.433.563.703.5.844.734 1.773.703 2.781-.031 1-.2 2.027-.5 3.078a43.419 43.419 0 0 1-1.016 3.094 27.992 27.992 0 0 0-.86 2.766c-.23 1.105-.273 2.093-.124 2.968.156.875.578 1.454 1.266 1.735.687.281 1.68.14 2.984-.422.101-.07.504-.29 1.203-.656.707-.375 1.473-.922 2.297-1.641.82-.719 1.516-1.613 2.078-2.687.57-1.07.813-2.329.719-3.766-.074-1.375-.313-2.613-.719-3.719a44.239 44.239 0 0 0-1.344-3.328 2.57 2.57 0 0 0-.281-.375.43.43 0 0 1-.125-.328c0-.332.234-.5.703-.5.8 0 1.531.039 2.188.11.656.062 1.398.093 2.234.093.813 0 1.55-.031 2.219-.094a21.18 21.18 0 0 1 2.219-.11c.425 0 .64.169.64.5a.445.445 0 0 1-.125.329c-.086.086-.156.21-.219.375-.742 1.574-1.304 3.352-1.687 5.328a52.774 52.774 0 0 0-.813 5.89 68.382 68.382 0 0 0-.218 5.173c0 1.511.07 3.242.218 5.187.157 1.95.426 3.914.813 5.89.383 1.97.945 3.747 1.687 5.329.063.168.133.289.22.36.081.062.124.179.124.343 0 .336-.215.5-.64.5-.543 0-1.11-.031-1.704-.094-.586-.07-1.156-.11-1.718-.11-.711 0-1.266.04-1.672.11a9.567 9.567 0 0 1-1.453.094c-.399 0-.688-.11-.875-.328a9.538 9.538 0 0 1-.532-.672 5.009 5.009 0 0 1-.703-2.766c.032-1.007.196-2.039.5-3.093a42.77 42.77 0 0 1 1-3.094c.375-1.008.645-1.93.813-2.766.27-1.144.32-2.144.156-3-.168-.851-.59-1.43-1.266-1.734-.668-.3-1.671-.149-3.015.453-.106.031-.5.242-1.188.625-.687.387-1.449.945-2.281 1.672-.836.719-1.539 1.617-2.11 2.687-.574 1.075-.808 2.329-.702 3.766.093 1.375.332 2.621.718 3.734.383 1.106.832 2.211 1.344 3.313.094.168.18.289.266.36.082.062.125.179.125.343 0 .336-.215.5-.641.5-.844 0-1.594-.031-2.25-.094-.648-.07-1.39-.11-2.234-.11-.805 0-1.543.04-2.22.11a23.77 23.77 0 0 1-2.202.094c-.438 0-.656-.164-.656-.5 0-.164.039-.281.125-.344.082-.07.16-.191.234-.36.726-1.581 1.285-3.378 1.672-5.39a53.16 53.16 0 0 0 .797-5.984c.156-1.977.234-3.723.234-5.234a63.9 63.9 0 0 0-.234-5.172 49.133 49.133 0 0 0-.797-5.766c-.387-1.926-.946-3.676-1.672-5.25a1.351 1.351 0 0 0-.234-.375.43.43 0 0 1-.125-.328c0-.332.218-.5.656-.5ZM346.702 198.891c-.805 0-1.465-.031-1.985-.094-.523-.07-1.203-.11-2.046-.11-.805 0-1.477.04-2.016.11-.531.063-1.2.094-2 .094-.438 0-.656-.164-.656-.5 0-.164.03-.281.093-.344.07-.07.157-.191.25-.36 1.145-2.007 1.875-3.952 2.188-5.827.32-1.883.5-3.446.531-4.688a34.162 34.162 0 0 1-1.11 3.719 21.865 21.865 0 0 1-1.78 3.86c-.72 1.218-1.586 2.214-2.594 2.984-1 .773-2.188 1.156-3.563 1.156-1.617 0-2.933-.672-3.953-2.016-1.023-1.343-1.531-3-1.531-4.968 0-1.582.234-3 .703-4.25a82.172 82.172 0 0 1 1.453-3.641c.508-1.176.797-2.406.86-3.687a7.027 7.027 0 0 0-.344-2.766c-.305-.906-.875-1.61-1.719-2.11a.928.928 0 0 0-.297-.171c-.137-.051-.258-.047-.36.015-.136.106-.23.117-.28.032-.04-.083-.032-.192.03-.329.47-.77 1.102-1.28 1.907-1.53a7.901 7.901 0 0 1 2.328-.376c1.54 0 2.738.438 3.594 1.313.851.867 1.297 1.933 1.328 3.203.07 1.418-.234 2.672-.922 3.765a17.625 17.625 0 0 1-2.5 3.079 39.298 39.298 0 0 0-2.719 3.015c-.636.813-1.062 1.637-1.28 2.469-.22.836-.204 1.59.046 2.266.258.667.75 1.152 1.469 1.453.719.304 1.695.289 2.937-.047a8.277 8.277 0 0 0 4-2.469c1.094-1.207 1.942-2.625 2.547-4.25.602-1.625.938-3.238 1-4.844.102-1.476-.015-2.82-.36-4.031-.335-1.207-.87-2.445-1.609-3.719a2.798 2.798 0 0 0-.25-.375.528.528 0 0 1-.093-.328c0-.332.218-.5.656-.5.8 0 1.469.04 2 .11.539.062 1.21.093 2.016.093.843 0 1.523-.031 2.046-.093.52-.07 1.18-.11 1.985-.11.437 0 .656.168.656.5 0 .137-.039.246-.11.328a14.84 14.84 0 0 0-2.14 4.703c-.387 1.512-.621 2.922-.703 4.235a49.314 49.314 0 0 0-.125 3.11c0 .773.039 1.82.125 3.14.082 1.324.316 2.742.703 4.25a14.795 14.795 0 0 0 1.89 4.328c.102.137.188.246.25.328.071.086.11.21.11.375 0 .336-.219.5-.656.5ZM362.492 173.094c1.601 0 3.054.578 4.36 1.735 1.312 1.156 2.362 2.71 3.155 4.656.79 1.937 1.188 4.101 1.188 6.484 0 2.375-.399 4.547-1.188 6.516-.793 1.96-1.843 3.515-3.156 4.672-1.305 1.156-2.758 1.734-4.36 1.734a6.395 6.395 0 0 1-3-.75c-.948-.508-1.812-1.21-2.593-2.11-.063 1.2-.297 2.055-.703 2.563a.606.606 0 0 1-.547.297c-.336 0-.703-.04-1.11-.125a5.717 5.717 0 0 0-1.156-.125c-.367 0-.75.043-1.156.125a5.803 5.803 0 0 1-1.203.125c-.438 0-.656-.164-.656-.5 0-.164.031-.281.093-.344.07-.07.176-.191.313-.36.738-1.581 1.289-3.358 1.656-5.327.363-1.977.613-3.946.75-5.906.133-1.97.203-3.708.203-5.22 0-1.507-.07-3.226-.203-5.155a53.443 53.443 0 0 0-.75-5.86c-.367-1.976-.918-3.754-1.656-5.328l-.313-.375a.528.528 0 0 1-.093-.328c0-.332.218-.5.656-.5.8 0 1.46.027 1.984.078.52.043 1.18.063 1.985.063.875 0 1.562-.02 2.062-.063.5-.05 1.172-.078 2.016-.078.469 0 .703.168.703.5a.404.404 0 0 1-.156.328c-.094.086-.18.21-.25.375-.742 1.543-1.305 3.313-1.688 5.313a55.737 55.737 0 0 0-.828 5.859c.77-.945 1.633-1.676 2.594-2.188a6.295 6.295 0 0 1 3.047-.78Zm2.156 22.828c.875.137 1.578-.187 2.11-.968.538-.79.859-1.915.952-3.375.102-1.458-.042-3.094-.437-4.907a20.832 20.832 0 0 0-1.719-5.047c-.773-1.562-1.62-2.847-2.547-3.859-.918-1.008-1.828-1.578-2.734-1.703-.906-.133-1.621.195-2.14.984-.524.782-.837 1.899-.938 3.344-.094 1.438.062 3.063.469 4.875.394 1.844.976 3.547 1.75 5.11.77 1.554 1.617 2.835 2.546 3.843.926 1 1.82 1.57 2.688 1.703Zm0 0"/><path fill="#0d1e2b" d="M106.337 164.024c.57 0 1.14.039 1.703.11.57.062 1.145.093 1.719.093.695 0 1.254-.031 1.672-.094a8.86 8.86 0 0 1 1.437-.11c.407 0 .707.102.907.298.207.199.394.433.562.703.5.844.734 1.773.703 2.781-.031 1-.199 2.027-.5 3.078a43.419 43.419 0 0 1-1.015 3.094 27.992 27.992 0 0 0-.86 2.766c-.23 1.105-.273 2.093-.125 2.968.156.875.578 1.453 1.266 1.735.687.28 1.68.14 2.984-.422.102-.07.504-.29 1.203-.656.707-.375 1.473-.922 2.297-1.641.82-.719 1.516-1.613 2.078-2.688.57-1.07.813-2.328.72-3.765-.075-1.375-.313-2.613-.72-3.719a44.239 44.239 0 0 0-1.343-3.328 2.57 2.57 0 0 0-.282-.375.43.43 0 0 1-.125-.328c0-.332.235-.5.703-.5.801 0 1.532.039 2.188.11.656.062 1.398.093 2.234.093.813 0 1.551-.031 2.22-.094a21.18 21.18 0 0 1 2.218-.11c.426 0 .64.169.64.5a.445.445 0 0 1-.125.329c-.085.086-.156.21-.218.375-.742 1.574-1.305 3.351-1.688 5.328a52.774 52.774 0 0 0-.812 5.89 68.382 68.382 0 0 0-.219 5.173c0 1.511.07 3.242.219 5.187.156 1.95.426 3.914.812 5.89.383 1.97.946 3.747 1.688 5.329.062.168.133.289.218.36.083.062.125.179.125.343 0 .336-.214.5-.64.5-.543 0-1.11-.031-1.703-.094-.586-.07-1.157-.11-1.719-.11-.71 0-1.266.04-1.672.11a9.567 9.567 0 0 1-1.453.094c-.398 0-.688-.11-.875-.328a9.538 9.538 0 0 1-.531-.672 5.009 5.009 0 0 1-.703-2.766c.03-1.008.195-2.039.5-3.093a42.77 42.77 0 0 1 1-3.094c.375-1.008.644-1.93.812-2.766.27-1.144.32-2.144.156-3-.168-.851-.59-1.43-1.265-1.734-.668-.301-1.672-.149-3.016.453-.105.031-.5.242-1.187.625-.688.387-1.45.945-2.282 1.672-.836.719-1.539 1.617-2.109 2.687-.574 1.075-.809 2.328-.703 3.766.094 1.375.332 2.621.719 3.734.382 1.106.832 2.211 1.343 3.313.094.168.18.289.266.36.082.062.125.179.125.343 0 .336-.215.5-.64.5-.844 0-1.594-.031-2.25-.094-.65-.07-1.391-.11-2.235-.11-.805 0-1.543.04-2.219.11a23.77 23.77 0 0 1-2.203.094c-.437 0-.656-.164-.656-.5 0-.164.039-.281.125-.344.082-.07.16-.191.234-.36.727-1.581 1.285-3.378 1.672-5.39a53.16 53.16 0 0 0 .797-5.984c.156-1.977.234-3.723.234-5.235a63.9 63.9 0 0 0-.234-5.171 49.133 49.133 0 0 0-.797-5.766c-.387-1.926-.945-3.676-1.672-5.25a1.351 1.351 0 0 0-.234-.375.43.43 0 0 1-.125-.328c0-.332.219-.5.656-.5ZM151.743 186.305c0 .773.04 1.82.125 3.14.082 1.325.317 2.743.703 4.25a14.795 14.795 0 0 0 1.891 4.329c.102.137.188.246.25.328.07.086.11.21.11.375 0 .336-.22.5-.657.5-.406 0-.805-.031-1.187-.094a6.878 6.878 0 0 0-1.235-.11c-.336 0-.695.04-1.078.11a7.05 7.05 0 0 1-1.125.094c-.273 0-.46-.098-.562-.297-.438-.633-.703-1.473-.797-2.516-.742.868-1.574 1.555-2.5 2.063-.918.5-1.899.75-2.938.75-1.605 0-3.074-.578-4.406-1.734-1.324-1.157-2.383-2.711-3.172-4.672-.781-1.97-1.172-4.14-1.172-6.516 0-2.383.39-4.547 1.172-6.484.79-1.946 1.848-3.5 3.172-4.657 1.332-1.156 2.8-1.734 4.406-1.734 1.04 0 2.02.25 2.938.75.926.5 1.758 1.188 2.5 2.063.094-1.04.36-1.88.797-2.516.07-.195.257-.297.562-.297a6.3 6.3 0 0 1 1.125.11 6.71 6.71 0 0 0 1.078.093c.438 0 .848-.031 1.235-.094.382-.07.78-.109 1.187-.109.438 0 .656.168.656.5 0 .137-.039.246-.109.328a14.84 14.84 0 0 0-2.14 4.703c-.387 1.512-.622 2.922-.704 4.235a49.314 49.314 0 0 0-.125 3.11Zm-6.828 9.953c.895.137 1.602-.187 2.125-.969.52-.789.836-1.906.953-3.343.125-1.446-.031-3.078-.468-4.89a22.746 22.746 0 0 0-1.75-5.095c-.75-1.562-1.59-2.847-2.516-3.86-.918-1.007-1.828-1.577-2.734-1.702-.868-.133-1.57.195-2.11.984-.531.781-.851 1.887-.953 3.313-.105 1.43.047 3.062.453 4.906a23.019 23.019 0 0 0 1.766 5.078c.77 1.574 1.613 2.867 2.531 3.875.926 1 1.828 1.57 2.703 1.703ZM158.486 173.43c.801 0 1.47.04 2 .11.54.062 1.211.093 2.016.093.844 0 1.523-.031 2.047-.094.52-.07 1.18-.109 1.984-.109.438 0 .656.168.656.5 0 .137-.039.246-.109.328-.062.086-.148.211-.25.375-1.137 2.012-1.855 3.95-2.156 5.813-.305 1.855-.469 3.422-.5 4.703a37.873 37.873 0 0 1 1.062-3.719 20.62 20.62 0 0 1 1.766-3.844c.726-1.226 1.594-2.226 2.594-3 1.007-.77 2.203-1.156 3.578-1.156 1.57 0 2.879.574 3.922 1.719 1.039 1.137 1.562 2.492 1.562 4.062a7.129 7.129 0 0 1-.781 3.25 29.1 29.1 0 0 0-1.39 3.188c-.231.637-.216 1.199.046 1.687.27.48.774.657 1.516.532.238-.04.336.023.297.187-.305.844-.899 1.563-1.782 2.156-.886.586-1.765.89-2.64.922-1.106.031-2.024-.226-2.75-.781-.719-.55-1.2-1.242-1.438-2.078a4.33 4.33 0 0 1 .078-2.547c.29-.852.86-1.566 1.704-2.14a7.867 7.867 0 0 1 1.875-.907c.687-.238 1.367-.473 2.046-.703 1-.406 1.582-.844 1.75-1.313.164-.468.055-.882-.328-1.25-.386-.375-.937-.644-1.656-.812-.719-.164-1.48-.164-2.281 0-1.711.336-3.149 1.133-4.313 2.39a13.467 13.467 0 0 0-2.672 4.36c-.617 1.637-.968 3.262-1.062 4.875-.106 1.512.008 2.871.344 4.078.332 1.2.867 2.438 1.61 3.719.1.168.187.289.25.36.07.062.108.179.108.343 0 .336-.218.5-.656.5-.805 0-1.465-.031-1.984-.094-.524-.07-1.203-.11-2.047-.11-.805 0-1.477.04-2.016.11-.53.063-1.199.094-2 .094-.437 0-.656-.164-.656-.5 0-.164.031-.29.094-.375.07-.082.16-.191.265-.328a13.92 13.92 0 0 0 1.891-4.328c.375-1.508.602-2.926.688-4.25.082-1.32.125-2.368.125-3.14 0-.77-.043-1.806-.125-3.11-.086-1.313-.313-2.723-.688-4.235a13.96 13.96 0 0 0-1.89-4.328 4.197 4.197 0 0 0-.266-.375.528.528 0 0 1-.094-.328c0-.332.219-.5.656-.5ZM182.373 173.43c.801 0 1.47.04 2 .11.54.062 1.211.093 2.016.093.844 0 1.523-.031 2.047-.094.52-.07 1.18-.109 1.984-.109.438 0 .657.168.657.5 0 .137-.04.246-.11.328-.062.086-.148.211-.25.375-1.137 2.012-1.855 3.95-2.156 5.813-.305 1.855-.469 3.422-.5 4.703a37.873 37.873 0 0 1 1.062-3.719 20.62 20.62 0 0 1 1.766-3.844c.727-1.226 1.594-2.226 2.594-3 1.008-.77 2.203-1.156 3.578-1.156s2.535.484 3.484 1.453c.957.969 1.57 2.246 1.844 3.828.738-1.539 1.633-2.804 2.688-3.797 1.062-.988 2.242-1.484 3.546-1.484 1.645 0 2.977.672 4 2.016 1.02 1.336 1.532 2.992 1.532 4.968 0 1.543-.235 2.946-.703 4.204a74.485 74.485 0 0 1-1.454 3.625 11.483 11.483 0 0 0-.906 3.687 8.03 8.03 0 0 0 .406 2.797c.301.918.868 1.633 1.704 2.14.07.032.171.075.296.126a.464.464 0 0 0 .36.015c.164-.094.254-.097.265-.015.02.085 0 .195-.062.328a3.346 3.346 0 0 1-1.875 1.5c-.805.273-1.57.406-2.297.406-1.543 0-2.746-.43-3.61-1.297-.855-.875-1.312-1.953-1.374-3.234-.032-1.407.297-2.649.984-3.735a17.688 17.688 0 0 1 2.484-3.093 40.25 40.25 0 0 0 2.72-3.032c.632-.8 1.062-1.617 1.28-2.453.22-.844.204-1.597-.046-2.265-.25-.676-.743-1.165-1.47-1.47-.718-.3-1.698-.28-2.937.063-1.242.336-2.37.98-3.39 1.938a13.489 13.489 0 0 0-2.625 3.39 20.113 20.113 0 0 0-1.688 4.016c-.398 1.375-.625 2.668-.687 3.875a8.264 8.264 0 0 0 .359 2.797c.29.918.86 1.633 1.703 2.14.063.032.164.075.313.126.156.054.285.058.39.015.125-.094.203-.097.235-.015.039.085.023.195-.047.328a3.288 3.288 0 0 1-1.86 1.5 7.166 7.166 0 0 1-2.312.406c-1.543 0-2.75-.43-3.625-1.297-.867-.875-1.313-1.953-1.344-3.234-.043-1.407.27-2.649.938-3.735a17.065 17.065 0 0 1 2.468-3.093 37.111 37.111 0 0 0 2.72-3.032c.632-.8 1.062-1.617 1.28-2.453.22-.844.204-1.597-.046-2.265-.25-.676-.735-1.165-1.454-1.47-.718-.3-1.699-.28-2.937.063a8.196 8.196 0 0 0-4.016 2.453c-1.086 1.211-1.922 2.622-2.515 4.235a16.878 16.878 0 0 0-1.016 4.828c-.105 1.512.008 2.871.344 4.078.332 1.2.867 2.438 1.61 3.719.1.168.187.289.25.36.07.062.109.179.109.343 0 .336-.22.5-.657.5-.804 0-1.465-.031-1.984-.094-.524-.07-1.203-.11-2.047-.11-.805 0-1.477.04-2.016.11-.53.063-1.199.094-2 .094-.437 0-.656-.164-.656-.5 0-.164.031-.29.094-.375.07-.082.16-.191.266-.328a13.92 13.92 0 0 0 1.89-4.328c.375-1.508.602-2.926.688-4.25.082-1.32.125-2.368.125-3.14 0-.77-.043-1.806-.125-3.11-.086-1.313-.313-2.723-.688-4.235a13.96 13.96 0 0 0-1.89-4.328 4.197 4.197 0 0 0-.266-.375.528.528 0 0 1-.094-.328c0-.332.219-.5.656-.5ZM226.021 173.43c1.613 0 3.07.578 4.375 1.734 1.312 1.157 2.36 2.711 3.14 4.657.79 1.937 1.188 4.101 1.188 6.484 0 2.375-.398 4.547-1.187 6.516-.782 1.96-1.829 3.515-3.141 4.672-1.305 1.156-2.762 1.734-4.375 1.734-1.606 0-3.074-.578-4.406-1.734-1.325-1.157-2.383-2.711-3.172-4.672-.781-1.97-1.172-4.14-1.172-6.516 0-2.383.39-4.547 1.172-6.484.789-1.946 1.847-3.5 3.172-4.657 1.332-1.156 2.8-1.734 4.406-1.734Zm2.172 22.828c.894.137 1.601-.187 2.125-.969.52-.789.836-1.906.953-3.343.125-1.446-.031-3.078-.469-4.89a22.746 22.746 0 0 0-1.75-5.095c-.75-1.562-1.59-2.847-2.515-3.86-.918-1.007-1.829-1.577-2.735-1.702-.867-.133-1.57.195-2.11.984-.53.781-.85 1.887-.952 3.313-.106 1.43.047 3.062.453 4.906a23.019 23.019 0 0 0 1.765 5.078c.77 1.574 1.614 2.867 2.532 3.875.925 1 1.828 1.57 2.703 1.703ZM238.546 173.43c.8 0 1.468.04 2 .11.539.062 1.21.093 2.015.093.844 0 1.524-.031 2.047-.094.52-.07 1.18-.109 1.984-.109.438 0 .657.168.657.5 0 .137-.04.246-.11.328-.062.086-.148.211-.25.375-1.136 2.012-1.855 3.95-2.156 5.813-.305 1.855-.469 3.422-.5 4.703a37.873 37.873 0 0 1 1.063-3.719 20.62 20.62 0 0 1 1.765-3.844c.727-1.226 1.594-2.226 2.594-3 1.008-.77 2.203-1.156 3.578-1.156 1.602 0 2.914.672 3.938 2.016 1.03 1.336 1.546 2.992 1.546 4.968 0 1.543-.234 2.946-.703 4.204a67.262 67.262 0 0 1-1.468 3.625 10.484 10.484 0 0 0-.844 3.687 8.264 8.264 0 0 0 .36 2.797c.288.918.859 1.633 1.702 2.14.063.032.164.075.313.126.156.054.285.058.39.015.125-.094.204-.097.235-.015.039.085.023.195-.047.328a3.288 3.288 0 0 1-1.86 1.5 7.166 7.166 0 0 1-2.312.406c-1.543 0-2.75-.43-3.625-1.297-.867-.875-1.312-1.953-1.344-3.234-.043-1.407.27-2.649.938-3.735a17.065 17.065 0 0 1 2.469-3.093 37.111 37.111 0 0 0 2.718-3.032c.633-.8 1.063-1.617 1.282-2.453.218-.844.203-1.597-.047-2.265-.25-.676-.735-1.165-1.453-1.47-.72-.3-1.7-.28-2.938.063a8.196 8.196 0 0 0-4.016 2.453c-1.085 1.211-1.921 2.622-2.515 4.235a16.878 16.878 0 0 0-1.016 4.828c-.105 1.512.008 2.871.344 4.078.332 1.2.867 2.438 1.61 3.719.1.168.187.289.25.36.07.062.109.179.109.343 0 .336-.219.5-.657.5-.804 0-1.464-.031-1.984-.094-.523-.07-1.203-.11-2.047-.11-.804 0-1.476.04-2.015.11-.532.063-1.2.094-2 .094-.438 0-.657-.164-.657-.5 0-.164.032-.29.094-.375.07-.082.16-.191.266-.328a13.92 13.92 0 0 0 1.89-4.328c.375-1.508.602-2.926.688-4.25.082-1.32.125-2.368.125-3.14 0-.77-.043-1.806-.125-3.11-.086-1.313-.313-2.723-.688-4.235a13.96 13.96 0 0 0-1.89-4.328 4.197 4.197 0 0 0-.266-.375.528.528 0 0 1-.094-.328c0-.332.22-.5.657-.5ZM267.459 199.274c-1.649 0-2.98-.664-4-2-1.024-1.344-1.532-3.004-1.532-4.985 0-1.582.235-3 .703-4.25a60.94 60.94 0 0 1 1.485-3.64c.52-1.176.812-2.406.875-3.688a7.027 7.027 0 0 0-.344-2.765c-.305-.907-.89-1.61-1.766-2.11a.928.928 0 0 0-.296-.172c-.137-.05-.258-.039-.36.032-.137.062-.219.054-.25-.032-.031-.082-.015-.191.047-.328.438-.77 1.055-1.28 1.86-1.53a7.901 7.901 0 0 1 2.328-.376c1.539 0 2.742.438 3.609 1.313.875.867 1.328 1.933 1.36 3.203.038 1.418-.282 2.68-.97 3.78a16.635 16.635 0 0 1-2.5 3.095 35.557 35.557 0 0 0-2.718 2.984c-.637.813-1.063 1.648-1.281 2.5-.22.856-.204 1.617.046 2.281.258.668.75 1.149 1.47 1.438.718.281 1.695.258 2.937-.078a7.82 7.82 0 0 0 3.64-2.078 12.452 12.452 0 0 0 2.5-3.61 15.655 15.655 0 0 0 1.282-4.297c.218-1.488.242-2.906.078-4.25a11.76 11.76 0 0 0-.735-2.61 18.37 18.37 0 0 0-1.187-2.42 1.117 1.117 0 0 0-.219-.376.43.43 0 0 1-.125-.328c0-.363.219-.547.656-.547.832 0 1.508.043 2.032.125.52.086 1.18.125 1.984.125.844 0 1.523-.039 2.047-.125.52-.082 1.18-.125 1.984-.125.438 0 .656.184.656.547 0 .137-.039.246-.109.328-.062.086-.148.211-.25.375a14.194 14.194 0 0 0-1.39 2.844 24.812 24.812 0 0 0-.829 2.937c-.43 2.25-.578 4.375-.453 6.375.133 1.992.453 3.992.953 6a550.27 550.27 0 0 0 1.672 6.438c.438 1.539.508 3.031.219 4.469-.281 1.445-.871 2.628-1.766 3.546-.886.926-1.996 1.391-3.328 1.391-.844 0-1.605-.148-2.281-.437a12.81 12.81 0 0 1-1.906-1 16.225 16.225 0 0 0-1.907-1.063c-.668-.312-1.437-.484-2.312-.516a6.954 6.954 0 0 0-2.719.36 3.58 3.58 0 0 0-2.062 1.703c-.032.062-.075.16-.125.297a.464.464 0 0 0-.016.36c.063.132.055.218-.016.25-.062.03-.164.015-.296-.048-.868-.511-1.43-1.277-1.688-2.297-.25-1.023-.27-2-.062-2.937.226-1.074.734-1.887 1.515-2.438.79-.554 1.723-.843 2.797-.875.875-.043 1.66.114 2.36.47a8.097 8.097 0 0 1 1.968 1.39c.406.394.867.922 1.39 1.578.52.656 1.048 1.258 1.579 1.812.539.551 1.062.895 1.562 1.032.5.132.93-.102 1.297-.703.375-.606.66-1.762.86-3.47.175-1.21.254-2.695.234-4.452a108.05 108.05 0 0 0-.234-5.657 65.694 65.694 0 0 0-.64-5.937 49.395 49.395 0 0 1-1.048 3.969 25.092 25.092 0 0 1-1.75 4.36c-.719 1.386-1.617 2.542-2.687 3.468-1.075.918-2.352 1.375-3.828 1.375ZM300.602 164.024c.57 0 1.14.039 1.703.11.57.062 1.145.093 1.719.093.695 0 1.254-.031 1.672-.094a8.86 8.86 0 0 1 1.437-.11c.406 0 .707.102.906.298.208.199.395.433.563.703.5.844.734 1.773.703 2.781-.031 1-.2 2.027-.5 3.078a43.419 43.419 0 0 1-1.016 3.094 27.992 27.992 0 0 0-.859 2.766c-.23 1.105-.273 2.093-.125 2.968.156.875.578 1.453 1.266 1.735.687.28 1.68.14 2.984-.422.102-.07.504-.29 1.203-.656.707-.375 1.473-.922 2.297-1.641.82-.719 1.516-1.613 2.078-2.688.57-1.07.813-2.328.719-3.765-.074-1.375-.313-2.613-.719-3.719a44.239 44.239 0 0 0-1.344-3.328 2.57 2.57 0 0 0-.28-.375.43.43 0 0 1-.126-.328c0-.332.235-.5.703-.5.801 0 1.532.039 2.188.11.656.062 1.398.093 2.234.093.813 0 1.551-.031 2.219-.094a21.18 21.18 0 0 1 2.219-.11c.426 0 .64.169.64.5a.445.445 0 0 1-.125.329c-.086.086-.156.21-.218.375-.743 1.574-1.305 3.351-1.688 5.328a52.774 52.774 0 0 0-.812 5.89 68.382 68.382 0 0 0-.22 5.173c0 1.511.071 3.242.22 5.187.156 1.95.425 3.914.812 5.89.383 1.97.945 3.747 1.688 5.329.062.168.132.289.218.36.082.062.125.179.125.343 0 .336-.214.5-.64.5-.543 0-1.11-.031-1.703-.094-.586-.07-1.157-.11-1.72-.11-.71 0-1.265.04-1.671.11a9.567 9.567 0 0 1-1.453.094c-.399 0-.688-.11-.875-.328a9.538 9.538 0 0 1-.531-.672 5.009 5.009 0 0 1-.704-2.766c.032-1.008.196-2.039.5-3.093a42.77 42.77 0 0 1 1-3.094c.375-1.008.645-1.93.813-2.766.27-1.144.32-2.144.156-3-.168-.851-.59-1.43-1.265-1.734-.668-.301-1.672-.149-3.016.453-.105.031-.5.242-1.188.625-.687.387-1.449.945-2.28 1.672-.837.719-1.54 1.617-2.11 2.687-.574 1.075-.809 2.328-.703 3.766.093 1.375.332 2.621.718 3.734.383 1.106.833 2.211 1.344 3.313.094.168.18.289.266.36.082.062.125.179.125.343 0 .336-.215.5-.64.5-.845 0-1.595-.031-2.25-.094-.65-.07-1.391-.11-2.235-.11-.805 0-1.543.04-2.219.11a23.77 23.77 0 0 1-2.203.094c-.438 0-.656-.164-.656-.5 0-.164.039-.281.125-.344.082-.07.16-.191.234-.36.727-1.581 1.285-3.378 1.672-5.39a53.16 53.16 0 0 0 .797-5.984c.156-1.977.234-3.723.234-5.235a63.9 63.9 0 0 0-.234-5.171 49.133 49.133 0 0 0-.797-5.766c-.387-1.926-.945-3.676-1.672-5.25a1.351 1.351 0 0 0-.234-.375.43.43 0 0 1-.125-.328c0-.332.218-.5.656-.5ZM348.43 199.227c-.805 0-1.465-.031-1.984-.094-.524-.07-1.203-.11-2.047-.11-.805 0-1.477.04-2.016.11-.531.063-1.2.094-2 .094-.437 0-.656-.164-.656-.5 0-.164.031-.281.094-.344.07-.07.156-.191.25-.36 1.144-2.007 1.875-3.952 2.187-5.827.32-1.883.5-3.446.531-4.688a34.162 34.162 0 0 1-1.109 3.719 21.865 21.865 0 0 1-1.781 3.86c-.719 1.218-1.586 2.214-2.594 2.984-1 .773-2.187 1.156-3.562 1.156-1.618 0-2.934-.672-3.954-2.016-1.023-1.343-1.53-3-1.53-4.968 0-1.582.234-3 .702-4.25a82.172 82.172 0 0 1 1.453-3.641c.508-1.176.797-2.406.86-3.688a7.027 7.027 0 0 0-.344-2.765c-.305-.906-.875-1.61-1.719-2.11a.928.928 0 0 0-.297-.171c-.136-.051-.257-.047-.359.015-.137.106-.23.117-.281.031-.04-.082-.031-.191.031-.328.469-.77 1.102-1.28 1.906-1.53a7.901 7.901 0 0 1 2.328-.376c1.54 0 2.739.438 3.594 1.313.852.867 1.297 1.933 1.328 3.203.07 1.418-.234 2.672-.922 3.765a17.625 17.625 0 0 1-2.5 3.078 39.298 39.298 0 0 0-2.718 3.016c-.637.813-1.063 1.637-1.282 2.469-.218.836-.203 1.59.047 2.265.258.668.75 1.153 1.469 1.454.719.304 1.695.289 2.938-.047a8.277 8.277 0 0 0 4-2.47c1.093-1.206 1.94-2.624 2.546-4.25.602-1.624.938-3.237 1-4.843.102-1.476-.015-2.82-.359-4.031-.336-1.207-.871-2.445-1.61-3.719a2.798 2.798 0 0 0-.25-.375.528.528 0 0 1-.093-.328c0-.332.219-.5.656-.5.8 0 1.469.04 2 .11.54.062 1.211.093 2.016.093.844 0 1.523-.031 2.047-.094.52-.07 1.18-.109 1.984-.109.438 0 .656.168.656.5 0 .137-.039.246-.11.328a14.84 14.84 0 0 0-2.14 4.703c-.386 1.512-.62 2.922-.703 4.235a49.314 49.314 0 0 0-.125 3.11c0 .772.04 1.82.125 3.14.082 1.324.317 2.742.703 4.25a14.795 14.795 0 0 0 1.89 4.328c.102.137.188.246.25.328.071.086.11.21.11.375 0 .336-.218.5-.656.5ZM364.22 173.43c1.601 0 3.055.578 4.36 1.734 1.312 1.157 2.363 2.711 3.156 4.657.789 1.937 1.187 4.101 1.187 6.484 0 2.375-.398 4.547-1.187 6.516-.793 1.96-1.844 3.515-3.157 4.672-1.304 1.156-2.758 1.734-4.36 1.734a6.395 6.395 0 0 1-3-.75c-.948-.508-1.812-1.211-2.593-2.11-.062 1.2-.297 2.055-.703 2.563a.606.606 0 0 1-.547.297c-.336 0-.703-.04-1.11-.125a5.717 5.717 0 0 0-1.155-.125c-.368 0-.75.043-1.157.125a5.803 5.803 0 0 1-1.203.125c-.437 0-.656-.164-.656-.5 0-.164.031-.281.094-.344.07-.07.175-.191.312-.36.738-1.581 1.29-3.359 1.656-5.327.364-1.977.614-3.946.75-5.907.133-1.968.204-3.707.204-5.218 0-1.508-.07-3.227-.204-5.157a53.443 53.443 0 0 0-.75-5.859c-.367-1.977-.918-3.754-1.656-5.328l-.312-.375a.528.528 0 0 1-.094-.328c0-.332.219-.5.656-.5.801 0 1.461.027 1.985.078.52.043 1.18.062 1.984.062.875 0 1.562-.02 2.062-.062.5-.05 1.172-.078 2.016-.078.469 0 .703.168.703.5a.404.404 0 0 1-.156.328c-.094.086-.18.21-.25.375-.742 1.543-1.305 3.312-1.688 5.312a55.737 55.737 0 0 0-.828 5.86c.77-.946 1.633-1.676 2.594-2.188a6.295 6.295 0 0 1 3.047-.78Zm2.156 22.828c.875.137 1.578-.187 2.11-.969.539-.789.859-1.914.953-3.375.101-1.457-.043-3.093-.438-4.906a20.832 20.832 0 0 0-1.719-5.047c-.773-1.562-1.62-2.847-2.546-3.86-.918-1.007-1.829-1.577-2.735-1.702-.906-.133-1.62.195-2.14.984-.524.781-.836 1.899-.938 3.344-.094 1.437.063 3.062.469 4.875.394 1.844.976 3.547 1.75 5.11.77 1.554 1.617 2.835 2.547 3.843.925 1 1.82 1.57 2.687 1.703Zm0 0"/></svg>